<svg width="24" height="24" viewBox="0 0 24 24" fill="none" xmlns="http://www.w3.org/2000/svg">
<path d="M11.588 20.8853C11.3291 20.8853 11.1192 21.0951 11.1192 21.354C11.1192 21.6129 11.3291 21.8228 11.588 21.8228H12.306C12.5649 21.8228 12.7748 21.6129 12.7748 21.354C12.7748 21.0951 12.5649 20.8853 12.306 20.8853H11.588Z" fill="#A82523"/>
<path d="M17.1172 19.2876C17.1172 19.0287 16.9073 18.8188 16.6484 18.8188H7.24548C6.98664 18.8188 6.77673 19.0287 6.77673 19.2876C6.77673 19.5465 6.98664 19.7563 7.24548 19.7563H16.6484C16.9073 19.7563 17.1172 19.5465 17.1172 19.2876Z" fill="#A82523"/>
<path d="M21.3671 4.29127H19.4793V2.94933C19.4793 1.32309 18.1562 0 16.53 0H7.36405C5.73777 0 4.41467 1.32309 4.41467 2.94933V9.43978C4.41467 9.69867 4.62458 9.90853 4.88342 9.90853C5.14227 9.90853 5.35217 9.69867 5.35217 9.43978V2.94933C5.35217 1.83998 6.2547 0.9375 7.36405 0.9375H16.53C17.6393 0.9375 18.5418 1.83998 18.5418 2.94933V4.29127H15.252C14.3863 4.29127 13.682 4.99556 13.682 5.8613V10.3116C13.682 11.1773 14.3863 11.8816 15.252 11.8816H18.5418V21.0506C18.5418 22.16 17.6393 23.0625 16.53 23.0625H7.36405C6.2547 23.0625 5.35217 22.16 5.35217 21.0506V14.9611C5.35217 14.7022 5.14227 14.4923 4.88342 14.4923C4.62458 14.4923 4.41467 14.7022 4.41467 14.9611V21.0506C4.41467 22.6769 5.73777 24 7.36405 24H16.53C18.1562 24 19.4793 22.6769 19.4793 21.0506V12.2445L20.389 12.6589C20.4509 12.6871 20.5172 12.7011 20.5833 12.7011C20.6719 12.7011 20.7601 12.6759 20.8369 12.6265C20.971 12.5403 21.0521 12.3918 21.0521 12.2323V11.8816H21.3672C22.2328 11.8816 22.9371 11.1773 22.9371 10.3116V5.8613C22.9371 4.99561 22.2328 4.29127 21.3671 4.29127ZM21.9996 10.3116C21.9996 10.6604 21.7159 10.9441 21.3671 10.9441H20.5833C20.3244 10.9441 20.1145 11.154 20.1145 11.4128V11.5037L18.9785 10.9862C18.9175 10.9584 18.8512 10.9441 18.7842 10.9441H15.252C14.9032 10.9441 14.6195 10.6604 14.6195 10.3116V5.8613C14.6195 5.51255 14.9032 5.22877 15.252 5.22877H21.3671C21.7159 5.22877 21.9996 5.5125 21.9996 5.8613V10.3116Z" fill="#A82523"/>
<path d="M19.2948 7.69043H17.3243C17.0655 7.69043 16.8556 7.90029 16.8556 8.15918C16.8556 8.41807 17.0655 8.62793 17.3243 8.62793H19.2948C19.5536 8.62793 19.7635 8.41807 19.7635 8.15918C19.7635 7.90029 19.5537 7.69043 19.2948 7.69043Z" fill="#A82523"/>
<path d="M10.648 7.49609H2.5256C1.71776 7.49609 1.06287 8.15098 1.06287 8.95883V14.87C1.06287 15.6778 1.71776 16.3327 2.5256 16.3327H3.56669V17.4211L5.95624 16.3327H10.648C11.4558 16.3327 12.1107 15.6778 12.1107 14.87V8.95883C12.1107 8.15098 11.4558 7.49609 10.648 7.49609Z" fill="#F5CA48"/>
<path d="M9.03894 11.4146H4.13464C3.8758 11.4146 3.66589 11.2047 3.66589 10.9458C3.66589 10.6869 3.8758 10.4771 4.13464 10.4771H9.03894C9.29778 10.4771 9.50769 10.6869 9.50769 10.9458C9.50769 11.2047 9.29778 11.4146 9.03894 11.4146Z" fill="#A82523"/>
<path d="M8.19135 13.4236H4.98224C4.7234 13.4236 4.51349 13.2137 4.51349 12.9548C4.51349 12.6959 4.7234 12.4861 4.98224 12.4861H8.19135C8.45019 12.4861 8.6601 12.6959 8.6601 12.9548C8.6601 13.2137 8.45019 13.4236 8.19135 13.4236Z" fill="#A82523"/>
</svg>
