<svg width="184" height="53" viewBox="0 0 184 53" fill="none" xmlns="http://www.w3.org/2000/svg">
<g clip-path="url(#clip0_628_720)">
<path d="M184 8.80253L173.538 3.91523L174.537 15.419L184 8.80253ZM1.47963 9.68001C2.6848 9.02127 3.9228 8.39555 5.19234 7.80665L4.35073 5.99234C3.04086 6.59996 1.76364 7.2455 0.520386 7.92506L1.47963 9.68001ZM12.9546 4.81428C15.5519 4.00705 18.2513 3.35464 21.0444 2.882L20.7107 0.910038C17.828 1.39785 15.0418 2.07122 12.361 2.90439L12.9546 4.81428ZM29.3202 2.04055C32.0246 1.94435 34.8012 2.01752 37.6439 2.27926L37.8272 0.287684C34.8999 0.018149 32.0383 -0.0573991 29.2491 0.041812L29.3202 2.04055ZM45.8781 3.54345C48.5148 4.10911 51.1998 4.83873 53.9289 5.7461L54.5599 3.84826C51.7626 2.91821 49.007 2.1692 46.2976 1.58795L45.8781 3.54345ZM61.7085 8.77451C64.1716 9.8733 66.6657 11.119 69.1877 12.5209L70.1594 10.7729C67.5877 9.34329 65.0413 8.07129 62.5233 6.94801L61.7085 8.77451ZM76.3422 16.8775C78.5997 18.3724 80.8764 19.9945 83.1704 21.7502L84.386 20.1619C82.0569 18.3794 79.7431 16.7308 77.4464 15.2099L76.3422 16.8775ZM89.6872 27.064C91.7397 28.8411 93.804 30.727 95.8787 32.7259L97.2664 31.2857C95.167 29.2629 93.0765 27.353 90.9964 25.552L89.6872 27.064ZM101.793 38.7056C102.747 39.7161 103.702 40.751 104.66 41.8106L106.144 40.4695C105.177 39.3993 104.211 38.3538 103.247 37.3326L101.793 38.7056ZM104.66 41.8106C105.64 42.8947 106.605 43.8866 107.557 44.7906L108.934 43.3402C108.022 42.4743 107.093 41.5192 106.144 40.4695L104.66 41.8106ZM114.248 49.8607C117.04 51.4275 119.738 52.2359 122.363 52.3964L122.485 50.4002C120.197 50.2603 117.79 49.5547 115.226 48.1164L114.248 49.8607ZM130.731 50.7437C133.161 49.6463 135.497 48.07 137.769 46.1899L136.494 44.649C134.312 46.4551 132.127 47.9187 129.908 48.9209L130.731 50.7437ZM143.764 40.5073C145.598 38.5823 147.426 36.5281 149.26 34.436L147.756 33.1176C145.926 35.2052 144.12 37.2339 142.316 39.1276L143.764 40.5073ZM154.626 28.3209C156.438 26.29 158.274 24.2976 160.152 22.4146L158.736 21.0021C156.822 22.9217 154.959 24.9444 153.134 26.9894L154.626 28.3209ZM166.104 17.0307C168.246 15.3259 170.448 13.8461 172.73 12.6772L171.818 10.8971C169.393 12.1394 167.08 13.6981 164.859 15.4659L166.104 17.0307Z" fill="#A82523"/>
</g>
<defs>
<clipPath id="clip0_628_720">
<rect width="184" height="53" fill="white"/>
</clipPath>
</defs>
</svg>
