<svg width="40" height="40" viewBox="0 0 40 40" fill="none" xmlns="http://www.w3.org/2000/svg">
<g clip-path="url(#clip0_628_842)">
<path fill-rule="evenodd" clip-rule="evenodd" d="M24.497 5.35089C25.9558 4.56136 27.7663 4.82394 28.9425 6.00011C29.6546 6.71222 30.0461 7.66964 30.0433 8.66675C29.8762 8.7412 29.7199 8.84667 29.5834 8.98324L27.9865 10.5801C27.3077 10.2268 26.5208 10.1104 25.7507 10.266C25.7056 8.52253 25.2854 6.84292 24.497 5.35089Z" fill="#F5CA48"/>
<path d="M35.1095 11.2195L32.3209 8.43081C31.8828 7.99276 31.2986 7.75143 30.6759 7.75143C30.0531 7.75143 29.469 7.99268 29.0309 8.43073L27.808 9.65354C27.3842 9.50456 26.9368 9.42448 26.4832 9.41885C26.2381 6.75432 25.14 4.30253 23.363 2.47276C23.0623 2.16331 22.5677 2.15604 22.2582 2.45659C21.9487 2.75721 21.9414 3.25182 22.242 3.56135C23.883 5.25089 24.8218 7.46706 24.957 9.9701C25.0938 12.5028 24.3963 15.0714 22.9397 17.398C22.7107 17.7638 22.8216 18.2458 23.1873 18.4748C23.3162 18.5555 23.4595 18.5939 23.6011 18.5939C23.8613 18.5939 24.1158 18.4639 24.264 18.2271C25.6841 15.9589 26.4582 13.4752 26.5308 10.9828C27.1792 11.0071 27.8006 11.2841 28.2612 11.7385C28.7497 12.2269 29.0187 12.8764 29.0187 13.5673C29.0187 14.2582 28.7497 14.9076 28.2612 15.3961C28.1866 15.4708 28.1066 15.5415 28.0233 15.6064C27.6831 15.8719 27.6226 16.3628 27.888 16.703C28.0421 16.9004 28.2721 17.0037 28.5045 17.0037C28.6726 17.0037 28.8419 16.9497 28.9847 16.8383C29.1181 16.7342 29.2465 16.6207 29.3662 16.501C30.1498 15.7174 30.5814 14.6755 30.5814 13.5673C30.5814 12.4591 30.1498 11.4172 29.3662 10.6336C29.3112 10.5786 29.2548 10.5254 29.1973 10.474L30.1358 9.53549C30.2787 9.39253 30.4705 9.31385 30.6759 9.31385C30.8812 9.31385 31.073 9.3926 31.2159 9.53557L34.0047 12.3242C34.1476 12.4672 34.2263 12.659 34.2263 12.8644C34.2263 13.0698 34.1477 13.2615 34.0047 13.4045L31.5909 15.8182C31.2859 16.1233 31.2859 16.618 31.5909 16.9231C31.7435 17.0757 31.9434 17.152 32.1434 17.1519C32.3433 17.1519 32.5432 17.0756 32.6958 16.9231L35.1095 14.5093C35.5475 14.0713 35.7888 13.4871 35.7888 12.8644C35.7889 12.2417 35.5477 11.6575 35.1095 11.2195Z" fill="#A82523"/>
<path fill-rule="evenodd" clip-rule="evenodd" d="M19.509 18.5323C22.428 15.6133 26.1919 14.1605 29.7304 14.2488C31.0447 14.2817 32.3278 14.5271 33.5251 14.9889C34.8405 15.4964 36.0522 16.2652 37.0873 17.3004L25.996 27.2014L18.4724 19.6778C18.7945 19.2839 19.14 18.9014 19.509 18.5323Z" fill="#F5CA48"/>
<path fill-rule="evenodd" clip-rule="evenodd" d="M18.0221 27.8344L22.2664 32.0786L18.2498 36.0953L14.0055 31.851C15.1173 31.8715 16.1571 31.5119 16.92 30.7489C17.683 29.9859 18.0425 28.9461 18.0221 27.8344Z" fill="#F5CA48"/>
<path fill-rule="evenodd" clip-rule="evenodd" d="M8.99102 22.8198C8.22805 23.5828 7.86852 24.6225 7.88891 25.7343L3.90485 21.7503L7.92141 17.7336L11.9055 21.7177C10.7938 21.6973 9.75391 22.0569 8.99102 22.8198Z" fill="#F5CA48"/>
<path d="M39.2855 13.2578C39.5852 12.637 39.6573 11.9225 39.4728 11.2396C39.2892 10.5601 38.87 9.98102 38.3023 9.59539C38.435 8.9143 38.3209 8.2007 37.9645 7.58398C37.6107 6.97227 37.0539 6.51922 36.4031 6.29266C36.3536 5.6025 36.0591 4.94453 35.5573 4.44266C35.0554 3.94078 34.3975 3.64625 33.7073 3.59672C33.4807 2.94594 33.0276 2.38906 32.4159 2.03539C31.7992 1.67891 31.0855 1.56492 30.4046 1.6975C30.0189 1.12977 29.4398 0.710547 28.7603 0.527031C28.0774 0.342578 27.363 0.414609 26.7423 0.714297C26.2187 0.258594 25.5434 0 24.831 0C24.831 0 24.831 0 24.8309 0C24.053 0 23.3216 0.302969 22.7715 0.853047C22.2968 1.32781 22.0061 1.9375 21.9353 2.59562L12.7664 12.867C12.621 12.7273 12.427 12.6489 12.2249 12.6489C12.0177 12.6489 11.8191 12.7313 11.6725 12.8777L1.05719 23.493C0.375469 24.1747 0 25.0841 0 26.0537C0 27.0232 0.375469 27.9327 1.05719 28.6144L11.3855 38.9427C12.0673 39.6245 12.9766 39.9999 13.9462 40C14.9156 40 15.8252 39.6245 16.507 38.9428L27.1222 28.3276C27.4237 28.0261 27.4272 27.5395 27.1329 27.2337L37.4045 18.0645C38.862 17.9059 40 16.6679 40 15.169C39.9999 14.4566 39.7413 13.7813 39.2855 13.2578ZM15.4021 37.8379C15.0155 38.2245 14.4984 38.4375 13.9462 38.4375C13.3941 38.4375 12.877 38.2245 12.4904 37.8379L2.16211 27.5095C1.77547 27.1229 1.5625 26.6059 1.5625 26.0537C1.5625 25.5014 1.77547 24.9845 2.16211 24.5978L12.2249 14.5349L25.465 27.7751L15.4021 37.8379ZM37.0874 16.5191C36.8955 16.5191 36.7103 16.5898 36.5672 16.7176L26.0266 26.1269L13.8731 13.9734L23.2824 3.43289C23.4102 3.28969 23.4809 3.10453 23.4809 2.91266C23.4809 2.55203 23.6213 2.21297 23.8763 1.95797C24.1314 1.70297 24.4704 1.5625 24.8311 1.5625C25.2838 1.5625 25.7042 1.78797 25.9558 2.16562C26.0805 2.35281 26.2797 2.47719 26.5026 2.50695C26.7256 2.53656 26.9504 2.46898 27.1198 2.32109C27.4586 2.02523 27.9194 1.91852 28.3529 2.03555C28.7847 2.15219 29.1288 2.47516 29.2734 2.89953C29.3459 3.11258 29.5068 3.28391 29.7148 3.36977C29.9228 3.45555 30.1577 3.44758 30.3595 3.34773C30.7657 3.14656 31.2422 3.16164 31.6337 3.38812C32.0226 3.61297 32.2731 4.01547 32.3038 4.46469C32.3191 4.68852 32.4299 4.89492 32.608 5.03141C32.7862 5.16789 33.0142 5.22117 33.2345 5.17781C33.6777 5.09039 34.1334 5.22852 34.4525 5.54758C34.7715 5.86656 34.9098 6.32188 34.8222 6.76555C34.7788 6.98562 34.832 7.21383 34.9685 7.39195C35.105 7.57008 35.3115 7.68086 35.5353 7.69617C35.9845 7.72695 36.387 7.97742 36.6119 8.36625C36.8383 8.75781 36.8534 9.23422 36.6523 9.64055C36.5524 9.84219 36.5444 10.0771 36.6303 10.2852C36.7162 10.4932 36.8875 10.6541 37.1005 10.7266C37.5249 10.8712 37.8479 11.2153 37.9645 11.6472C38.0816 12.0805 37.9749 12.5415 37.6791 12.8804C37.5312 13.0498 37.4634 13.2746 37.4932 13.4975C37.523 13.7204 37.6473 13.9196 37.8345 14.0443C38.2121 14.2959 38.4376 14.7164 38.4377 15.1691C38.4375 15.9134 37.8319 16.5191 37.0874 16.5191Z" fill="#A82523"/>
<path d="M8.43859 22.2674C6.39383 24.3121 6.75656 28.002 9.24718 30.4927C10.6527 31.8982 12.44 32.626 14.0982 32.626C15.3784 32.626 16.5816 32.1921 17.4724 31.3013C18.4871 30.2866 18.9467 28.8542 18.7666 27.268C18.5941 25.7481 17.8472 24.2595 16.6638 23.076C15.4804 21.8926 13.9916 21.1458 12.4719 20.9732C10.885 20.7927 9.4532 21.2527 8.43859 22.2674ZM12.2955 22.5257C13.4655 22.6586 14.6245 23.2464 15.5589 24.1809C16.4934 25.1153 17.0812 26.2742 17.2141 27.4442C17.3394 28.5478 17.0387 29.5252 16.3675 30.1964C15.7755 30.7885 14.969 31.0746 14.0932 31.0746C12.8455 31.0745 11.4576 30.4933 10.352 29.3878C8.47062 27.5064 8.10789 24.8078 9.54343 23.3723C10.1149 22.8008 10.9084 22.498 11.8127 22.498C11.9705 22.4979 12.1316 22.5071 12.2955 22.5257Z" fill="#A82523"/>
<path d="M21.6564 8.69885C21.225 8.69885 20.8752 9.04862 20.8752 9.4801C20.8752 9.91159 21.225 10.2614 21.6564 10.2614H21.657C22.0884 10.2614 22.438 9.91159 22.438 9.4801C22.438 9.04862 22.0879 8.69885 21.6564 8.69885Z" fill="#A82523"/>
<path d="M19.7049 12.9873C19.2735 12.9873 18.9237 13.3371 18.9237 13.7686C18.9237 14.2 19.2735 14.5498 19.7049 14.5498H19.7056C20.137 14.5498 20.4865 14.2 20.4865 13.7686C20.4865 13.3371 20.1363 12.9873 19.7049 12.9873Z" fill="#A82523"/>
<path d="M24.7802 19.2786C24.1331 19.2786 23.6084 19.8033 23.6084 20.4504C23.6084 21.0976 24.1331 21.6223 24.7802 21.6223H24.7809C25.4281 21.6223 25.9524 21.0976 25.9524 20.4504C25.9524 19.8033 25.4274 19.2786 24.7802 19.2786Z" fill="#A82523"/>
<path d="M29.5006 17.7463C29.0692 17.7463 28.7194 18.0961 28.7194 18.5276C28.7194 18.9591 29.0692 19.3088 29.5006 19.3088H29.5013C29.9327 19.3088 30.2822 18.9591 30.2822 18.5276C30.2822 18.0961 29.9321 17.7463 29.5006 17.7463Z" fill="#A82523"/>
</g>
<defs>
<clipPath id="clip0_628_842">
<rect width="40" height="40" fill="white"/>
</clipPath>
</defs>
</svg>
