<svg width="80" height="80" viewBox="0 0 80 80" fill="none" xmlns="http://www.w3.org/2000/svg">
<g clip-path="url(#clip0_628_889)">
<path d="M7.79657 14.8436V25.7843L11.7188 22.6466L15.6409 25.7843V14.8436H7.79657Z" fill="#F5CA48"/>
<path d="M76.4653 61.5519C76.2478 60.7168 75.3947 60.2161 74.5595 60.4335C73.7244 60.651 73.2238 61.5043 73.4411 62.3393C74.2239 65.3469 71.9552 68.2816 68.8812 68.2816C65.8063 68.2816 63.537 65.3471 64.32 62.3393C64.5775 61.3493 63.8267 60.3666 62.7808 60.3847C62.6586 60.3822 40.6689 60.3835 34.5027 60.3832V57.2051H51.7667C52.3944 57.2051 52.9611 56.8296 53.2056 56.2516L57.8452 45.2916C57.928 45.0957 57.9702 44.8847 57.9688 44.6721L57.823 22.743H62.983L67.4809 51.1594C67.6027 51.9291 68.267 52.4779 69.0222 52.4779C69.9898 52.4779 70.7167 51.6146 70.5675 50.671L66.2134 23.1638C71.9711 24.2819 71.757 24.2741 72.0312 24.2741C72.8922 24.2741 73.5938 23.576 73.5938 22.7116V10.1566C73.5938 9.17146 72.6906 8.4299 71.7234 8.62474L64.0634 10.1635H56.4733C53.5539 10.1635 51.0945 12.176 50.4002 14.8907H45.4911C44.6281 14.8907 43.9286 15.5904 43.9286 16.4532C43.9286 17.316 44.6281 18.0157 45.4911 18.0157H50.4002C50.9477 20.1566 52.5933 21.8593 54.6961 22.4841L54.8416 44.3705L50.7312 54.0801H34.5025C34.5025 52.3288 34.5025 41.819 34.5025 40.0426C34.5025 36.4874 31.6198 33.5951 28.0764 33.5951H23.4375V17.9688C23.4375 15.3841 21.3347 13.2813 18.75 13.2813H4.6875C2.10281 13.2813 0 15.3841 0 17.9688V43.0365C0 43.8993 0.699531 44.599 1.5625 44.599H9.57438C3.82812 48.2235 0 54.6435 0 61.9455C0 62.8085 0.699531 63.508 1.5625 63.508H6.27547L7.83797 61.9455L6.62812 60.383H3.19438C3.98312 51.5474 11.3938 44.599 20.3891 44.599H31.3775V60.383H26.302C25.6387 60.383 25.0733 60.7971 24.8466 61.3804C24.5639 60.6501 23.773 60.2315 22.9969 60.4333C22.1617 60.6508 21.6611 61.5041 21.8784 62.3391C22.6613 65.3468 20.3925 68.2815 17.3186 68.2815C14.2436 68.2815 11.9744 65.3469 12.7573 62.3391C12.9747 61.504 12.4741 60.6507 11.6389 60.4333C10.8041 60.2165 9.95063 60.7168 9.73312 61.5518C8.43531 66.5391 12.2055 71.4065 17.3187 71.4065C21.8247 71.4065 25.4578 67.5683 25.1352 62.9818L28.227 63.5079H32.9402H58.0484L59.932 61.3249L61.0433 63.5079C61.0211 67.854 64.5444 71.4065 68.8812 71.4065C73.2028 71.4065 76.7188 67.8782 76.7188 63.5415C76.7188 62.8674 76.6334 62.198 76.4653 61.5519ZM70.4688 20.8132L65.7812 19.8946V13.0058L70.4688 12.0643V20.8132ZM53.3292 16.4532C53.3292 14.7082 54.7395 13.2885 56.4733 13.2885H62.6562V19.6182H56.4733C54.7395 19.6182 53.3292 18.1983 53.3292 16.4532ZM4.6875 16.4063H18.75C19.6116 16.4063 20.3125 17.1072 20.3125 17.9688V33.5951H3.125V17.9688C3.125 17.1072 3.82594 16.4063 4.6875 16.4063ZM3.125 41.474V36.7201H28.0764C29.8966 36.7201 31.3775 38.2105 31.3775 40.0426V41.474C28.5252 41.474 6.31016 41.474 3.125 41.474Z" fill="#A82523"/>
<path d="M6.27545 63.508V61.9455C6.27545 55.8707 11.1992 50.9283 17.2512 50.9283C23.3031 50.9283 28.2269 55.8707 28.2269 61.9455V63.508H6.27545Z" fill="#F5CA48"/>
<path d="M58.0484 63.508V60.3697C58.0484 54.2948 62.9721 49.3527 69.0242 49.3527C75.0762 49.3527 80 54.2948 80 60.3697V63.508H58.0484Z" fill="#F5CA48"/>
</g>
<defs>
<clipPath id="clip0_628_889">
<rect width="80" height="80" fill="white"/>
</clipPath>
</defs>
</svg>
