<svg width="40" height="40" viewBox="0 0 40 40" fill="none" xmlns="http://www.w3.org/2000/svg">
<g clip-path="url(#clip0_628_857)">
<path d="M27.7792 39.2187H12.2207L11.4395 25.3191H28.5605L27.7792 39.2187Z" fill="#F5CA48"/>
<path d="M34.3415 14.5223C34.1938 14.3647 33.9876 14.2753 33.7715 14.2753H32.3409V6.7282C32.3409 6.29672 31.9911 5.94695 31.5597 5.94695H28.4876V3.29656C28.4876 2.86508 28.1378 2.51531 27.7064 2.51531H23.8532C23.4218 2.51531 23.0719 2.86508 23.0719 3.29656V6.56125H20.7812V3.29656C20.7812 2.86508 20.4314 2.51531 20 2.51531H16.928V0.78125C16.928 0.349766 16.5783 0 16.1468 0H12.2935C11.862 0 11.5123 0.349766 11.5123 0.78125V2.51531H8.4403C8.00882 2.51531 7.65905 2.86508 7.65905 3.29656V14.2753H6.22835C6.01241 14.2753 5.80608 14.3647 5.65842 14.5223C5.51069 14.6798 5.43483 14.8915 5.44874 15.107L7.01124 39.2691C7.0378 39.6802 7.37897 39.9999 7.79085 39.9999H32.209C32.6209 39.9999 32.9621 39.6802 32.9887 39.2691L34.5512 15.107C34.5651 14.8914 34.4893 14.6798 34.3415 14.5223ZM30.7785 7.50945V14.2753H29.4914C29.1695 14.2753 28.8806 14.4727 28.7636 14.7727C28.7416 14.8288 28.5561 15.2666 28.4877 15.4095V7.50945H30.7785ZM24.6344 4.07781H26.9251V17.7333C26.2598 18.4591 25.4867 19.0721 24.6344 19.5525V4.07781ZM23.0719 8.12367V20.2526C22.3419 20.5021 21.5737 20.6637 20.7812 20.728V8.12367H23.0719ZM19.2187 4.07781V20.728C18.4262 20.6637 17.6581 20.5021 16.928 20.2526V4.07781H19.2187ZM13.0748 1.5625H15.3655V19.5525C14.5133 19.0721 13.7401 18.4591 13.0748 17.7332V1.5625ZM9.22147 4.07781H11.5122V15.4093C11.4252 15.2274 11.247 14.8001 11.2362 14.7726C11.2355 14.7705 11.2346 14.7684 11.2337 14.7663C11.117 14.4705 10.8291 14.2761 10.5111 14.2753C10.5101 14.2753 10.5093 14.2753 10.5084 14.2753H9.22139V4.07781H9.22147ZM31.4767 38.4375H8.52327L7.06178 15.8378H9.98882C10.8033 17.6579 12.093 19.2148 13.7435 20.3633C15.5851 21.6448 17.7487 22.3222 20 22.3222C22.2513 22.3222 24.4148 21.6448 26.2565 20.3633C27.9069 19.2148 29.1966 17.6579 30.0112 15.8378H32.9382L31.4767 38.4375Z" fill="#A82523"/>
<path d="M24.4216 29.9379H15.5784C15.1469 29.9379 14.7972 30.2876 14.7972 30.7191C14.7972 31.1506 15.1469 31.5004 15.5784 31.5004H24.4215C24.8529 31.5004 25.2027 31.1506 25.2027 30.7191C25.2027 30.2876 24.853 29.9379 24.4216 29.9379Z" fill="#A82523"/>
<path d="M22.4684 33.0264H17.5316C17.1001 33.0264 16.7504 33.3761 16.7504 33.8076C16.7504 34.2391 17.1001 34.5889 17.5316 34.5889H22.4684C22.8998 34.5889 23.2497 34.2391 23.2497 33.8076C23.2497 33.3761 22.8998 33.0264 22.4684 33.0264Z" fill="#A82523"/>
</g>
<defs>
<clipPath id="clip0_628_857">
<rect width="40" height="40" fill="white"/>
</clipPath>
</defs>
</svg>
