<svg width="40" height="40" viewBox="0 0 40 40" fill="none" xmlns="http://www.w3.org/2000/svg">
<path d="M23.2724 28.2594L24.1751 27.3567C24.5802 26.9516 25.2369 26.9516 25.642 27.3567L26.5446 28.2594C26.9497 28.6645 26.9497 29.3212 26.5446 29.7263L25.642 30.6289C25.2369 31.034 24.5802 31.034 24.1751 30.6289L23.2724 29.7263C22.8674 29.3212 22.8674 28.6645 23.2724 28.2594Z" fill="#F5CA48"/>
<path d="M17.7093 36.0067H16.1031C15.3823 36.0067 14.798 35.4224 14.798 34.7016V33.0954C14.798 32.3746 15.3823 31.7903 16.1031 31.7903H17.7093C18.4301 31.7903 19.0144 32.3746 19.0144 33.0954V34.7016C19.0143 35.4224 18.43 36.0067 17.7093 36.0067Z" fill="#F5CA48"/>
<path d="M31.3489 13.529H8.65109C8.65109 7.75163 13.3346 3.06812 19.112 3.06812H20.888C26.6654 3.06812 31.3489 7.75155 31.3489 13.529Z" fill="#F5CA48"/>
<path d="M33.2818 12.7477H20.7812V0.78125C20.7812 0.349766 20.4314 0 20 0C19.5685 0 19.2187 0.349766 19.2187 0.78125V12.7477H6.7182C6.28679 12.7477 5.93695 13.0976 5.93695 13.529V17.1072C5.93695 17.5386 6.28679 17.8884 6.7182 17.8884H7.97742L11.1682 39.3337C11.2252 39.7166 11.5538 40 11.9409 40H28.059C28.446 40 28.7748 39.7166 28.8317 39.3337L32.0225 17.8884H33.2817C33.7131 17.8884 34.063 17.5386 34.063 17.1072V13.529C34.063 13.0975 33.7132 12.7477 33.2818 12.7477ZM9.55719 17.8884H19.2187V21.6572H10.118L9.55719 17.8884ZM27.3854 38.4375H12.6146L10.3504 23.2197H19.2187V29.393C19.2187 29.8245 19.5685 30.1742 20 30.1742C20.4314 30.1742 20.7812 29.8245 20.7812 29.393V23.2197H29.6496L27.3854 38.4375ZM29.8821 21.6572H20.7812V17.8884H30.4428L29.8821 21.6572ZM32.5005 16.3259H7.49945V14.3102H32.5005V16.3259Z" fill="#A82523"/>
</svg>
