<svg width="80" height="80" viewBox="0 0 80 80" fill="none" xmlns="http://www.w3.org/2000/svg">
<g clip-path="url(#clip0_628_879)">
<path d="M39.9995 21.9577L29.8019 14.1133L19.6043 21.9577V1.5625H39.9995V21.9577Z" fill="#F5CA48"/>
<path d="M46.2989 58.0653C52.7973 58.0653 58.0653 52.7973 58.0653 46.2989C58.0653 39.8005 52.7973 34.5325 46.2989 34.5325C39.8005 34.5325 34.5325 39.8005 34.5325 46.2989C34.5325 52.7973 39.8005 58.0653 46.2989 58.0653Z" fill="#F5CA48"/>
<path d="M21.9575 43.928H7.83786C6.97506 43.928 6.27538 44.6275 6.27538 45.4905C6.27538 46.3533 6.97506 47.0529 7.83786 47.0529H21.9575C22.8203 47.0529 23.52 46.3533 23.52 45.4905C23.52 44.6275 22.8205 43.928 21.9575 43.928Z" fill="#A82523"/>
<path d="M17.251 50.2034H7.83786C6.97506 50.2034 6.27538 50.903 6.27538 51.7658C6.27538 52.6286 6.97506 53.3283 7.83786 53.3283H17.251C18.1138 53.3283 18.8135 52.6286 18.8135 51.7658C18.8135 50.9029 18.114 50.2034 17.251 50.2034Z" fill="#A82523"/>
<path d="M78.6224 71.9751L67.5289 60.8815C66.9188 60.2717 65.9294 60.2715 65.3193 60.8815L64.2054 61.9954L61.2226 59.0126C67.9239 51.172 67.4794 39.194 59.604 31.9019V6.26898C59.6039 2.81231 56.7916 0 53.3347 0H6.26898C2.81231 0 0 2.81231 0 6.26898V53.3347C0 56.7916 2.81231 59.6039 6.26898 59.6039H31.9021C39.1474 67.4291 51.1195 67.9689 59.0128 61.2224L61.9956 64.2052L60.8817 65.3191C60.2718 65.9293 60.2717 66.9186 60.8817 67.5288L71.9753 78.622C73.8118 80.4589 76.7852 80.4594 78.6224 78.6222C80.4591 76.7855 80.4594 73.8123 78.6224 71.9751ZM6.26898 56.4789C4.53525 56.4789 3.12496 55.0683 3.12496 53.3347V6.26898C3.12496 4.53525 4.53525 3.12496 6.26898 3.12496H53.3347C55.0685 3.12496 56.4789 4.53525 56.4789 6.26898V29.5373C53.4419 27.6851 49.9468 26.6946 46.299 26.6946C35.4642 26.6946 26.6946 35.4626 26.6946 46.2991C26.6946 49.9468 27.6852 53.4419 29.5373 56.4789H6.26898ZM34.6462 57.9517C28.2209 51.5265 28.2209 41.0716 34.6462 34.6464C41.0713 28.2213 51.526 28.2209 57.9515 34.6464C64.3769 41.0716 64.3769 51.5265 57.9515 57.9517C51.5263 64.3771 41.0716 64.3771 34.6462 57.9517ZM76.4125 76.4126C75.7969 77.0282 74.8007 77.0283 74.1849 76.4126L64.1962 66.4239L66.4239 64.1962L76.4127 74.1849C77.0282 74.8007 77.0283 75.7968 76.4125 76.4126Z" fill="#A82523"/>
<path d="M49.7168 42.3353L44.0802 47.9719L41.8569 45.7487C41.2466 45.1387 40.2576 45.1387 39.6471 45.7487C39.037 46.3588 39.037 47.3482 39.6471 47.9585L42.9752 51.2866C43.5857 51.8967 44.5745 51.8966 45.185 51.2866L51.9266 44.5451C52.5368 43.935 52.5368 42.9456 51.9266 42.3353C51.3165 41.7255 50.3274 41.7252 49.7168 42.3353Z" fill="#A82523"/>
</g>
<defs>
<clipPath id="clip0_628_879">
<rect width="80" height="80" fill="white"/>
</clipPath>
</defs>
</svg>
