<svg width="80" height="80" viewBox="0 0 80 80" fill="none" xmlns="http://www.w3.org/2000/svg">
<g clip-path="url(#clip0_628_897)">
<path d="M56.338 28.2812C51.2534 37.9484 40.0231 48.5678 40 48.5938C40 48.5938 37.325 46.0578 33.9953 42.3438C30.4892 38.4342 26.2586 33.2188 23.6619 28.2812H10.9375V65.7812H69.0625V28.2812H56.338Z" fill="#F5CA48"/>
<path d="M78.4375 64.2188H76.875V26.7188C76.875 23.2725 74.0713 20.4688 70.625 20.4688H60.3125C60.3125 9.26828 51.2005 0.15625 40 0.15625C28.7995 0.15625 19.6875 9.26828 19.6875 20.4688H9.375C5.92875 20.4688 3.125 23.2725 3.125 26.7188V64.2188H1.5625C0.699531 64.2188 0 64.9184 0 65.7812V73.5938C0 77.04 2.80375 79.8438 6.25 79.8438H73.75C77.1963 79.8438 80 77.04 80 73.5938V65.7812C80 64.9184 79.3003 64.2188 78.4375 64.2188ZM40 3.28125C49.4772 3.28125 57.1875 10.9916 57.1875 20.4688C57.1875 25.0247 52.8028 32.423 44.8411 41.3008C42.8434 43.5292 41.0719 45.3398 39.9998 46.4077C38.9289 45.3411 37.1592 43.5322 35.1586 41.3005C27.197 32.423 22.8125 25.0247 22.8125 20.4688C22.8125 10.9916 30.5228 3.28125 40 3.28125ZM6.25 26.7188C6.25 24.9956 7.65188 23.5938 9.375 23.5938H20.1161C22.1064 31.4027 30.6322 41.2487 36.2262 47.0312H29.8438C28.9808 47.0312 28.2812 47.7309 28.2812 48.5938C28.2812 49.4566 28.9808 50.1562 29.8438 50.1562H50.1562C51.0191 50.1562 51.7188 49.4566 51.7188 48.5938C51.7188 47.7309 51.0191 47.0312 50.1562 47.0312H43.7736C49.3508 41.2655 57.8911 31.412 59.8838 23.5938H70.625C72.3481 23.5938 73.75 24.9956 73.75 26.7188V64.2188C71.6192 64.2188 9.4525 64.2188 6.25 64.2188V26.7188ZM32.9688 67.3438H47.0312V70.4688H32.9688V67.3438ZM76.875 73.5938C76.875 75.3169 75.4731 76.7188 73.75 76.7188H6.25C4.52688 76.7188 3.125 75.3169 3.125 73.5938V67.3438H29.8438V72.0312C29.8438 72.8941 30.5433 73.5938 31.4062 73.5938H48.5938C49.4566 73.5938 50.1562 72.8941 50.1562 72.0312V67.3438H76.875V73.5938Z" fill="#A82523"/>
<path d="M49.375 20.4688C49.375 15.2994 45.1694 11.0938 40 11.0938C34.8306 11.0938 30.625 15.2994 30.625 20.4688C30.625 25.6381 34.8306 29.8438 40 29.8438C45.1694 29.8438 49.375 25.6381 49.375 20.4688ZM33.75 20.4688C33.75 17.0225 36.5538 14.2188 40 14.2188C43.4462 14.2188 46.25 17.0225 46.25 20.4688C46.25 23.915 43.4462 26.7188 40 26.7188C36.5538 26.7188 33.75 23.915 33.75 20.4688Z" fill="#A82523"/>
</g>
<defs>
<clipPath id="clip0_628_897">
<rect width="80" height="80" fill="white"/>
</clipPath>
</defs>
</svg>
