<svg width="40" height="40" viewBox="0 0 40 40" fill="none" xmlns="http://www.w3.org/2000/svg">
<g clip-path="url(#clip0_628_806)">
<path d="M21.4153 4.59576C21.4565 4.39709 21.4781 4.19131 21.4781 3.98045C21.4781 2.31576 20.1305 0.966309 18.4682 0.966309C16.8059 0.966309 15.4583 2.31576 15.4583 3.98045C15.4583 4.19131 15.4799 4.39709 15.5211 4.59576C14.223 4.93045 13.264 6.11053 13.264 7.5149C13.264 9.17959 14.6116 10.529 16.2739 10.529C17.1392 10.529 17.9192 10.1633 18.4682 9.57795C19.0173 10.1633 19.7973 10.529 20.6625 10.529C22.3248 10.529 23.6724 9.17951 23.6724 7.5149C23.6724 6.11045 22.7134 4.93045 21.4153 4.59576Z" fill="#F5CA48"/>
<path d="M22.2003 22.1336H14.7361C14.3605 22.1336 14.038 21.8662 13.9684 21.4972L12.7466 15.018C12.5079 13.6884 12.8661 12.3389 13.728 11.3087C14.5883 10.2802 15.8502 9.69031 17.1902 9.69031H19.7463C21.0863 9.69031 22.3482 10.2802 23.2085 11.3086C24.0704 12.3389 24.4285 13.6884 24.1912 15.0112L23.9941 16.0569C23.9141 16.4809 23.5062 16.7598 23.0815 16.6798C22.6575 16.5998 22.3786 16.1913 22.4585 15.7673L22.6545 14.7284C22.8087 13.8691 22.5742 12.9856 22.01 12.3112C21.4474 11.6387 20.6223 11.2529 19.7463 11.2529H17.1902C16.3141 11.2529 15.4891 11.6387 14.9264 12.3112C14.3623 12.9857 14.1278 13.8692 14.2833 14.7352L15.3838 20.5712H22.2003C22.6317 20.5712 22.9816 20.921 22.9816 21.3524C22.9816 21.7838 22.6318 22.1336 22.2003 22.1336Z" fill="#A82523"/>
<path d="M26.7728 21.3531H38.0928C38.9443 19.917 38.7543 18.0317 37.5229 16.7959C37.3086 16.5808 37.0748 16.3974 36.827 16.2457L37.2284 15.8428C38.3409 14.7263 38.3409 12.9161 37.2284 11.7996C36.1159 10.6831 34.3122 10.6831 33.1997 11.7996L32.7983 12.2025C32.6471 11.9539 32.4644 11.7192 32.2501 11.5041C30.7941 10.0429 28.4334 10.0429 26.9773 11.5041C26.6396 11.843 26.3804 12.2306 26.1993 12.6445C25.5952 12.3785 24.9274 12.2309 24.2252 12.2309C21.5133 12.2309 19.3148 14.4326 19.3148 17.1484C19.3148 18.9301 20.261 20.4905 21.6776 21.3531H26.7728Z" fill="#F5CA48"/>
<path d="M39.2188 20.5718L10.3229 20.5711C10.8859 19.6978 11.1988 18.6688 11.1988 17.6099C11.1988 15.0207 9.38867 12.8476 6.97109 12.2971C8.03961 11.1184 9.5693 10.4208 11.1883 10.4208C12.4848 10.4208 13.7062 10.8468 14.7202 11.6529C15.058 11.9213 15.5494 11.8653 15.8179 11.5275C16.0864 11.1898 16.0302 10.6983 15.6925 10.4298C14.3992 9.40176 12.8417 8.8584 11.1884 8.8584C8.71727 8.8584 6.41 10.132 5.08016 12.2059C2.40922 12.5461 0.337344 14.8399 0.337344 17.61C0.337344 18.6691 0.650469 19.6984 1.21375 20.5719H0.78125C0.349766 20.5719 0 20.9218 0 21.3532C0 21.7846 0.349766 22.1344 0.78125 22.1344H1.19641C1.23977 24.5407 1.7382 26.81 2.67969 28.8846C3.62422 30.9661 4.98961 32.8018 6.73789 34.3407C10.1759 37.3671 14.8859 39.0338 20 39.0338C25.1141 39.0338 29.824 37.3671 33.2621 34.3407C35.0105 32.8018 36.3758 30.9661 37.3203 28.8846C38.2617 26.81 38.7602 24.5407 38.8036 22.1344H39.2188C39.6502 22.1344 40 21.7846 40 21.3532C40 20.9218 39.6502 20.5718 39.2188 20.5718ZM5.76797 13.7249C7.90094 13.7249 9.63633 15.4677 9.63633 17.61C9.63633 18.7654 9.14242 19.8311 8.27242 20.5712H3.26352C2.39359 19.8311 1.89961 18.7654 1.89961 17.61C1.89969 15.4676 3.635 13.7249 5.76797 13.7249ZM20 37.4713C10.1352 37.4713 2.9407 31.0421 2.7593 22.1344H37.2406C37.0593 31.0421 29.8648 37.4713 20 37.4713Z" fill="#A82523"/>
</g>
<defs>
<clipPath id="clip0_628_806">
<rect width="40" height="40" fill="white"/>
</clipPath>
</defs>
</svg>
