<svg fill="none" height="40" viewBox="0 0 40 40" width="40" xmlns="http://www.w3.org/2000/svg"><path d="m30.8933 16.3934c3.0769 1.5239 5.554 4.0758 6.9829 7.2066 1.0536-2.3265.6241-5.1606-1.2885-7.0732-.5098-.5098-1.0852-.9144-1.699-1.2134.1029-2.3974-1.701-4.4726-4.115-4.6819-1.0894-.0945-2.1219.2068-2.9556.7846 1.7285 1.0283 2.9246 2.8583 3.0752 4.9773z" fill="#f5ca48"/><path d="m24.5936 10.5319c-.7211 0-1.4139.1209-2.0594.3434-1.6225-1.76807-4.3654-1.95979-6.2204-.4009-.8567.72-1.3782 1.691-1.5473 2.7149-.9191.3196-1.7076.9368-2.2395 1.7457.6425.378 1.1639.9401 1.4914 1.6138 2.0723-1.0864 4.4309-1.701 6.9331-1.701h3.3137c2.3802 0 4.6305.5561 6.6281 1.5455-.2329-3.276-2.9644-5.8614-6.2997-5.8614z" fill="#f5ca48"/><g fill="#a82523"><path d="m23.8241 25.7887h-13.2706c-.4315 0-.78123.3498-.78123.7812 0 .4315.34973.7813.78123.7813h13.2706c.4314 0 .7812-.3498.7812-.7813 0-.4314-.3498-.7812-.7812-.7812z"/><path d="m14.1922 23.671h.9384c.4315 0 .7813-.3498.7813-.7812s-.3498-.7813-.7813-.7813h-.9384c-.4315 0-.7813.3499-.7813.7813s.3498.7812.7813.7812z"/><path d="m23.8241 22.1085h-5.213c-.4315 0-.7813.3499-.7813.7813s.3498.7812.7813.7812h5.213c.4314 0 .7812-.3498.7812-.7812s-.3498-.7813-.7812-.7813z"/><path d="m24.2653 14.0666h-3.3137c-2.3902 0-4.6576.5358-6.6885 1.4935-.841-1.2043-2.1854-1.9273-3.655-1.9273-2.41982 0-4.40654 1.8901-4.56138 4.2714-.67719.2365-1.28227.6281-1.77242 1.1321-.03578.0273-.06969.0579-.10125.0921-2.69102 2.9136-4.17305 6.704-4.17305 10.6729 0 .2072.0823437.4059.228828.5525.146485.1464.345235.2288.552422.2288h38.43755c.4314 0 .7812-.3499.7812-.7813 0-8.6761-7.0586-15.7347-15.7347-15.7347zm-13.6572 1.1286c.9031 0 1.712.4044 2.264 1.1082-1.0151.61-1.9562 1.3312-2.8062 2.1467-.72215-.512-1.53168-.78-2.41551-.7988.26024-1.3961 1.4875-2.4561 2.95771-2.4561zm-4.59341 9.6552c-.90227-.5145-1.47313-1.5003-1.47313-2.6291 0-1.659 1.34961-3.0087 3.0086-3.0087.52062 0 .99234.1287 1.4275.3912-1.30149 1.526-2.31704 3.3027-2.96297 5.2466zm-2.90289-1.4986c.32523 1.3516 1.22726 2.4662 2.47812 3.0355-.18961.8538-.30969 1.7335-.35383 2.6327h-3.65226c.10883-1.9917.63265-3.9182 1.52797-5.6682zm3.68882 5.6682c.40711-7.4523 6.59868-13.3909 14.15088-13.3909h3.3138c7.5522 0 13.7437 5.9386 14.1509 13.391z"/></g></svg>