<svg width="190" height="60" viewBox="0 0 190 60" fill="none" xmlns="http://www.w3.org/2000/svg">
<g filter="url(#filter0_d_638_294)">
<path d="M15.3535 27.2676C14.9824 28.0879 14.5723 29.0742 14.123 30.2266C13.6738 31.3789 13.1855 32.5801 12.6582 33.8301C12.1309 35.0801 11.5645 36.3203 10.959 37.5508C10.373 38.7812 9.74805 39.8848 9.08398 40.8613C8.43945 41.8184 7.76562 42.5996 7.0625 43.2051C6.37891 43.8105 5.67578 44.1133 4.95312 44.1133C4.34766 44.1133 3.84961 44.0156 3.45898 43.8203C3.06836 43.6445 2.76562 43.4102 2.55078 43.1172C2.33594 42.8438 2.17969 42.541 2.08203 42.209C2.00391 41.8574 1.96484 41.5254 1.96484 41.2129C1.96484 40.7441 2.0332 40.2656 2.16992 39.7773C2.32617 39.2891 2.51172 38.8398 2.72656 38.4297L13.9473 17.7754C14.4355 16.916 14.8945 16.2422 15.3242 15.7539C15.7734 15.2656 16.1836 14.9043 16.5547 14.6699C16.9453 14.4355 17.2871 14.2988 17.5801 14.2598C17.873 14.2012 18.1172 14.1719 18.3125 14.1719C18.6641 14.1719 18.9863 14.2988 19.2793 14.5527C19.5723 14.7871 19.7188 15.2266 19.7188 15.8711C19.7188 16.4961 19.5527 17.3555 19.2207 18.4492C18.8887 19.543 18.2734 20.9492 17.375 22.668C18.8984 22.5508 20.4023 22.2969 21.8867 21.9062C23.3711 21.4961 24.6992 20.9395 25.8711 20.2363C27.0625 19.5332 28.0195 18.6836 28.7422 17.6875C29.4648 16.6719 29.8262 15.5 29.8262 14.1719C29.8262 13 29.6309 11.8867 29.2402 10.832C28.8691 9.75781 28.3125 8.82031 27.5703 8.01953C26.8477 7.19922 25.9492 6.55469 24.875 6.08594C23.8008 5.59766 22.5605 5.35352 21.1543 5.35352C19.2402 5.35352 17.5898 5.53906 16.2031 5.91016C14.8359 6.26172 13.6543 6.73047 12.6582 7.31641C11.6816 7.90234 10.8613 8.57617 10.1973 9.33789C9.5332 10.0996 8.95703 10.8711 8.46875 11.6523C8 12.4336 7.58008 13.2051 7.20898 13.9668C6.83789 14.7285 6.44727 15.4023 6.03711 15.9883C5.64648 16.5742 5.19727 17.0527 4.68945 17.4238C4.18164 17.7754 3.55664 17.9512 2.81445 17.9512C1.85742 17.9512 1.14453 17.707 0.675781 17.2188C0.226562 16.7305 0.00195312 16.0371 0.00195312 15.1387C0.00195312 14.2402 0.246094 13.2637 0.734375 12.209C1.22266 11.1348 1.91602 10.0605 2.81445 8.98633C3.71289 7.91211 4.79688 6.88672 6.06641 5.91016C7.35547 4.91406 8.80078 4.03516 10.4023 3.27344C12.0039 2.51172 13.7422 1.90625 15.6172 1.45703C17.5117 0.988281 19.5039 0.753906 21.5938 0.753906C23.5469 0.753906 25.4219 1.03711 27.2188 1.60352C29.0352 2.15039 30.6367 2.98047 32.0234 4.09375C33.4102 5.20703 34.5137 6.60352 35.334 8.2832C36.1738 9.94336 36.5938 11.8965 36.5938 14.1426C36.5938 16.1934 36.0957 18.0488 35.0996 19.709C34.123 21.3496 32.7949 22.7461 31.1152 23.8984C29.4551 25.0312 27.5312 25.9102 25.3438 26.5352C23.1562 27.1406 20.8516 27.4434 18.4297 27.4434C17.9219 27.4434 17.4043 27.4336 16.877 27.4141C16.3691 27.3945 15.8613 27.3457 15.3535 27.2676ZM38.0586 17.6582C38.0586 17.209 38.1367 16.75 38.293 16.2812C38.4688 15.793 38.7227 15.3535 39.0547 14.9629C39.3867 14.5723 39.7969 14.25 40.2852 13.9961C40.793 13.7422 41.3887 13.6152 42.0723 13.6152C43.2051 13.6152 43.9961 13.8398 44.4453 14.2891C44.8945 14.7188 45.1191 15.2656 45.1191 15.9297C45.1191 16.3008 45.041 16.7109 44.8848 17.1602C44.748 17.6094 44.5332 18.0293 44.2402 18.4199C43.9473 18.791 43.5664 19.1035 43.0977 19.3574C42.6289 19.6113 42.0723 19.7383 41.4277 19.7383C40.2168 19.7383 39.3672 19.5527 38.8789 19.1816C38.3906 18.791 38.1172 18.2832 38.0586 17.6582ZM34.8359 24.25C35.168 23.7031 35.5488 23.3125 35.9785 23.0781C36.4082 22.8438 36.8477 22.7266 37.2969 22.7266C38.0391 22.7266 38.6738 22.9707 39.2012 23.459C39.748 23.9277 40.0215 24.5332 40.0215 25.2754C40.002 25.4512 39.9727 25.627 39.9336 25.8027C39.9141 25.9785 39.8555 26.1543 39.7578 26.3301C39.4844 26.8379 39.2598 27.2676 39.084 27.6191C38.9082 27.9707 38.7422 28.3027 38.5859 28.6152C38.4492 28.9082 38.3125 29.2012 38.1758 29.4941C38.0391 29.7871 37.873 30.1387 37.6777 30.5488C37.4434 31.0371 37.1797 31.5742 36.8867 32.1602C36.5938 32.7266 36.3105 33.3125 36.0371 33.918C35.7832 34.5234 35.5586 35.1191 35.3633 35.7051C35.1875 36.291 35.0996 36.8281 35.0996 37.3164C35.0996 37.8438 35.2266 38.1953 35.4805 38.3711C35.7539 38.5273 36.1348 38.6055 36.623 38.6055C37.1699 38.6055 37.7363 38.4883 38.3223 38.2539C38.9277 38.0195 39.5332 37.7168 40.1387 37.3457C40.7441 36.9746 41.3398 36.5547 41.9258 36.0859C42.5117 35.5977 43.0586 35.1094 43.5664 34.6211C44.0938 34.1328 44.5723 33.6641 45.002 33.2148C45.4512 32.7656 45.8223 32.3652 46.1152 32.0137C46.5059 31.6426 46.8965 31.457 47.2871 31.457C47.6387 31.457 47.9219 31.6133 48.1367 31.9258C48.3711 32.2383 48.4883 32.6387 48.4883 33.127C48.4883 33.5762 48.3711 34.0547 48.1367 34.5625C47.9219 35.0703 47.5605 35.5488 47.0527 35.998C46.0566 37.0137 45.041 37.9902 44.0059 38.9277C42.9707 39.8457 41.9062 40.666 40.8125 41.3887C39.7383 42.0918 38.6543 42.6582 37.5605 43.0879C36.4668 43.5176 35.3633 43.7324 34.25 43.7324C32.668 43.7324 31.418 43.332 30.5 42.5312C29.6016 41.7109 29.1523 40.4414 29.1523 38.7227C29.1523 37.8242 29.2793 36.9453 29.5332 36.0859C29.7871 35.2266 30.0898 34.3965 30.4414 33.5957C30.793 32.7754 31.1641 31.9941 31.5547 31.252C31.9453 30.4902 32.2773 29.7676 32.5508 29.084C32.6484 28.8301 32.8145 28.4395 33.0488 27.9121C33.3027 27.3848 33.5664 26.8477 33.8398 26.3008C34.1523 25.6562 34.4844 24.9727 34.8359 24.25ZM54.6406 45.4609C54.6406 45.3047 54.6406 45.1484 54.6406 44.9922C54.6406 44.8555 54.6309 44.709 54.6113 44.5527C53.2441 45.2559 52.0234 45.9199 50.9492 46.5449C49.8945 47.1699 48.9961 47.7461 48.2539 48.2734C47.5312 48.8008 46.9746 49.2695 46.584 49.6797C46.2129 50.1094 46.0273 50.4512 46.0273 50.7051C46.0273 51.2129 46.2129 51.6328 46.584 51.9648C46.9746 52.3164 47.5117 52.4922 48.1953 52.4922C48.7227 52.4922 49.3477 52.2676 50.0703 51.8184C50.793 51.3887 51.4863 50.832 52.1504 50.1484C52.8145 49.4648 53.3809 48.7031 53.8496 47.8633C54.3379 47.043 54.6016 46.2422 54.6406 45.4609ZM72.3945 29.0547C72.5508 28.918 72.707 28.8398 72.8633 28.8203C73.0391 28.7812 73.2051 28.752 73.3613 28.7324C73.8105 28.7324 74.2109 28.9082 74.5625 29.2598C74.9141 29.6113 75.0898 29.9922 75.0898 30.4023C75.0898 30.5781 75.0508 30.7344 74.9727 30.8711C74.9141 31.0078 74.8164 31.1543 74.6797 31.3105C74.0547 32.0137 73.3027 32.7266 72.4238 33.4492C71.5645 34.1719 70.5391 34.9434 69.3477 35.7637C68.1758 36.584 66.8184 37.4727 65.2754 38.4297C63.7324 39.3867 61.9648 40.4512 59.9727 41.623C59.9727 41.7402 59.9727 41.8672 59.9727 42.0039C59.9922 42.1211 60.002 42.248 60.002 42.3848C60.002 43.3809 59.8066 44.4062 59.416 45.4609C59.0449 46.5156 58.5273 47.5508 57.8633 48.5664C57.2188 49.582 56.457 50.5391 55.5781 51.4375C54.7188 52.3555 53.8008 53.1562 52.8242 53.8398C51.8672 54.5234 50.8809 55.0605 49.8652 55.4512C48.8496 55.8613 47.873 56.0664 46.9355 56.0664C45.998 56.0664 45.1387 55.9492 44.3574 55.7148C43.5957 55.5 42.9414 55.1777 42.3945 54.748C41.8477 54.3379 41.4277 53.8398 41.1348 53.2539C40.8418 52.6875 40.6953 52.0527 40.6953 51.3496C40.6953 50.7051 40.9297 50.0117 41.3984 49.2695C41.8672 48.5273 42.6094 47.7266 43.625 46.8672C44.6406 46.0273 45.9492 45.1094 47.5508 44.1133C49.1523 43.1367 51.0762 42.0723 53.3223 40.9199C52.9902 40.7832 52.6387 40.7051 52.2676 40.6855C51.916 40.666 51.5742 40.6562 51.2422 40.6562C50.793 40.6562 50.2754 40.666 49.6895 40.6855C49.1035 40.7051 48.5078 40.7148 47.9023 40.7148C47.4336 40.7148 46.9844 40.7051 46.5547 40.6855C46.125 40.666 45.7344 40.627 45.3828 40.5684C45.0508 40.5098 44.7871 40.4219 44.5918 40.3047C44.3965 40.168 44.2988 39.9922 44.2988 39.7773C44.2988 39.3672 44.4062 38.9473 44.6211 38.5176C44.8359 38.0684 45.2266 37.541 45.793 36.9355C46.3789 36.3105 47.1602 35.5684 48.1367 34.709C49.1328 33.8301 50.4023 32.7656 51.9453 31.5156L58.1855 26.916C58.0488 26.916 56.9844 26.9453 54.9922 27.0039C53 27.0625 50.2168 27.0918 46.6426 27.0918C46.1348 27.0918 45.7637 26.9551 45.5293 26.6816C45.2949 26.4082 45.1777 26.1445 45.1777 25.8906C45.1973 25.5977 45.2559 25.2754 45.3535 24.9238C45.4707 24.5723 45.627 24.25 45.8223 23.957C46.0176 23.6445 46.252 23.3809 46.5254 23.166C46.8184 22.9512 47.1504 22.8438 47.5215 22.8438C47.9121 22.8438 48.5469 22.8438 49.4258 22.8438C50.3047 22.8242 51.3008 22.8145 52.4141 22.8145C53.5273 22.8145 54.6895 22.8047 55.9004 22.7852C57.1113 22.7656 58.2441 22.7559 59.2988 22.7559C60.3535 22.7559 61.2617 22.7559 62.0234 22.7559C62.7852 22.7363 63.2832 22.7266 63.5176 22.7266C63.8691 22.7266 64.1523 22.7852 64.3672 22.9023C64.582 23.0195 64.748 23.166 64.8652 23.3418C64.9824 23.5176 65.0605 23.7129 65.0996 23.9277C65.1387 24.123 65.1582 24.3086 65.1582 24.4844C65.1582 24.8359 65.0801 25.1875 64.9238 25.5391C64.7871 25.8906 64.5527 26.2617 64.2207 26.6523C63.9082 27.043 63.4883 27.4629 62.9609 27.9121C62.4336 28.3418 61.7988 28.8301 61.0566 29.377C60.9199 29.4746 60.6758 29.6504 60.3242 29.9043C59.9922 30.1582 59.5918 30.4609 59.123 30.8125C58.6543 31.1445 58.1367 31.5156 57.5703 31.9258C57.0234 32.3359 56.4766 32.7461 55.9297 33.1562C54.6211 34.1133 53.1855 35.168 51.623 36.3203H52.2383C53.4883 36.3203 54.6602 36.4961 55.7539 36.8477C56.8477 37.1992 57.7656 37.6777 58.5078 38.2832C60.168 37.3652 61.6816 36.4961 63.0488 35.6758C64.4355 34.8555 65.6855 34.0742 66.7988 33.332C67.9316 32.5703 68.957 31.8379 69.875 31.1348C70.793 30.4316 71.6328 29.7383 72.3945 29.0547ZM79.4844 45.4609C79.4844 45.3047 79.4844 45.1484 79.4844 44.9922C79.4844 44.8555 79.4746 44.709 79.4551 44.5527C78.0879 45.2559 76.8672 45.9199 75.793 46.5449C74.7383 47.1699 73.8398 47.7461 73.0977 48.2734C72.375 48.8008 71.8184 49.2695 71.4277 49.6797C71.0566 50.1094 70.8711 50.4512 70.8711 50.7051C70.8711 51.2129 71.0566 51.6328 71.4277 51.9648C71.8184 52.3164 72.3555 52.4922 73.0391 52.4922C73.5664 52.4922 74.1914 52.2676 74.9141 51.8184C75.6367 51.3887 76.3301 50.832 76.9941 50.1484C77.6582 49.4648 78.2246 48.7031 78.6934 47.8633C79.1816 47.043 79.4453 46.2422 79.4844 45.4609ZM97.2383 29.0547C97.3945 28.918 97.5508 28.8398 97.707 28.8203C97.8828 28.7812 98.0488 28.752 98.2051 28.7324C98.6543 28.7324 99.0547 28.9082 99.4062 29.2598C99.7578 29.6113 99.9336 29.9922 99.9336 30.4023C99.9336 30.5781 99.8945 30.7344 99.8164 30.8711C99.7578 31.0078 99.6602 31.1543 99.5234 31.3105C98.8984 32.0137 98.1465 32.7266 97.2676 33.4492C96.4082 34.1719 95.3828 34.9434 94.1914 35.7637C93.0195 36.584 91.6621 37.4727 90.1191 38.4297C88.5762 39.3867 86.8086 40.4512 84.8164 41.623C84.8164 41.7402 84.8164 41.8672 84.8164 42.0039C84.8359 42.1211 84.8457 42.248 84.8457 42.3848C84.8457 43.3809 84.6504 44.4062 84.2598 45.4609C83.8887 46.5156 83.3711 47.5508 82.707 48.5664C82.0625 49.582 81.3008 50.5391 80.4219 51.4375C79.5625 52.3555 78.6445 53.1562 77.668 53.8398C76.7109 54.5234 75.7246 55.0605 74.709 55.4512C73.6934 55.8613 72.7168 56.0664 71.7793 56.0664C70.8418 56.0664 69.9824 55.9492 69.2012 55.7148C68.4395 55.5 67.7852 55.1777 67.2383 54.748C66.6914 54.3379 66.2715 53.8398 65.9785 53.2539C65.6855 52.6875 65.5391 52.0527 65.5391 51.3496C65.5391 50.7051 65.7734 50.0117 66.2422 49.2695C66.7109 48.5273 67.4531 47.7266 68.4688 46.8672C69.4844 46.0273 70.793 45.1094 72.3945 44.1133C73.9961 43.1367 75.9199 42.0723 78.166 40.9199C77.834 40.7832 77.4824 40.7051 77.1113 40.6855C76.7598 40.666 76.418 40.6562 76.0859 40.6562C75.6367 40.6562 75.1191 40.666 74.5332 40.6855C73.9473 40.7051 73.3516 40.7148 72.7461 40.7148C72.2773 40.7148 71.8281 40.7051 71.3984 40.6855C70.9688 40.666 70.5781 40.627 70.2266 40.5684C69.8945 40.5098 69.6309 40.4219 69.4355 40.3047C69.2402 40.168 69.1426 39.9922 69.1426 39.7773C69.1426 39.3672 69.25 38.9473 69.4648 38.5176C69.6797 38.0684 70.0703 37.541 70.6367 36.9355C71.2227 36.3105 72.0039 35.5684 72.9805 34.709C73.9766 33.8301 75.2461 32.7656 76.7891 31.5156L83.0293 26.916C82.8926 26.916 81.8281 26.9453 79.8359 27.0039C77.8438 27.0625 75.0605 27.0918 71.4863 27.0918C70.9785 27.0918 70.6074 26.9551 70.373 26.6816C70.1387 26.4082 70.0215 26.1445 70.0215 25.8906C70.041 25.5977 70.0996 25.2754 70.1973 24.9238C70.3145 24.5723 70.4707 24.25 70.666 23.957C70.8613 23.6445 71.0957 23.3809 71.3691 23.166C71.6621 22.9512 71.9941 22.8438 72.3652 22.8438C72.7559 22.8438 73.3906 22.8438 74.2695 22.8438C75.1484 22.8242 76.1445 22.8145 77.2578 22.8145C78.3711 22.8145 79.5332 22.8047 80.7441 22.7852C81.9551 22.7656 83.0879 22.7559 84.1426 22.7559C85.1973 22.7559 86.1055 22.7559 86.8672 22.7559C87.6289 22.7363 88.127 22.7266 88.3613 22.7266C88.7129 22.7266 88.9961 22.7852 89.2109 22.9023C89.4258 23.0195 89.5918 23.166 89.709 23.3418C89.8262 23.5176 89.9043 23.7129 89.9434 23.9277C89.9824 24.123 90.002 24.3086 90.002 24.4844C90.002 24.8359 89.9238 25.1875 89.7676 25.5391C89.6309 25.8906 89.3965 26.2617 89.0645 26.6523C88.752 27.043 88.332 27.4629 87.8047 27.9121C87.2773 28.3418 86.6426 28.8301 85.9004 29.377C85.7637 29.4746 85.5195 29.6504 85.168 29.9043C84.8359 30.1582 84.4355 30.4609 83.9668 30.8125C83.498 31.1445 82.9805 31.5156 82.4141 31.9258C81.8672 32.3359 81.3203 32.7461 80.7734 33.1562C79.4648 34.1133 78.0293 35.168 76.4668 36.3203H77.082C78.332 36.3203 79.5039 36.4961 80.5977 36.8477C81.6914 37.1992 82.6094 37.6777 83.3516 38.2832C85.0117 37.3652 86.5254 36.4961 87.8926 35.6758C89.2793 34.8555 90.5293 34.0742 91.6426 33.332C92.7754 32.5703 93.8008 31.8379 94.7188 31.1348C95.6367 30.4316 96.4766 29.7383 97.2383 29.0547ZM106.848 25.7148C106.75 25.6953 106.662 25.6855 106.584 25.6855C106.506 25.6855 106.418 25.6855 106.32 25.6855C105.578 25.6855 104.885 25.832 104.24 26.125C103.596 26.418 103 26.8086 102.453 27.2969C101.926 27.7656 101.447 28.3027 101.018 28.9082C100.607 29.5137 100.236 30.1191 99.9043 30.7246C99.5723 31.3105 99.2891 31.877 99.0547 32.4238C98.8398 32.9707 98.6738 33.4297 98.5566 33.8008C99.2402 33.4492 99.9434 33.0488 100.666 32.5996C101.408 32.1504 102.102 31.7207 102.746 31.3105C103.391 30.9004 103.947 30.5293 104.416 30.1973C104.904 29.8652 105.246 29.6406 105.441 29.5234C106.32 28.9766 106.926 28.4688 107.258 28C107.59 27.5117 107.756 27.0918 107.756 26.7402C107.756 26.4473 107.658 26.2129 107.463 26.0371C107.287 25.8613 107.082 25.7539 106.848 25.7148ZM107.902 21.6719C109.523 21.6719 110.734 22.0625 111.535 22.8438C112.336 23.625 112.736 24.709 112.736 26.0957C112.736 26.916 112.521 27.7754 112.092 28.6738C111.662 29.5723 110.92 30.4902 109.865 31.4277C108.811 32.3457 107.395 33.293 105.617 34.2695C103.859 35.2266 101.652 36.1934 98.9961 37.1699C99.0938 37.7363 99.3965 38.1855 99.9043 38.5176C100.412 38.8301 101.086 38.9863 101.926 38.9863C102.824 38.9863 103.781 38.8594 104.797 38.6055C105.832 38.332 106.848 37.9902 107.844 37.5801C108.859 37.1699 109.846 36.7305 110.803 36.2617C111.76 35.7734 112.619 35.3145 113.381 34.8848C114.162 34.4551 114.807 34.084 115.314 33.7715C115.842 33.459 116.193 33.2637 116.369 33.1855C116.545 33.0684 116.701 33 116.838 32.9805C116.994 32.9609 117.131 32.9512 117.248 32.9512C117.482 32.9512 117.678 33.0098 117.834 33.127C117.99 33.2246 118.117 33.3516 118.215 33.5078C118.332 33.6445 118.41 33.8008 118.449 33.9766C118.488 34.1328 118.508 34.2695 118.508 34.3867C118.508 34.5625 118.488 34.7773 118.449 35.0312C118.41 35.2656 118.264 35.5391 118.01 35.8516C117.912 35.9492 117.58 36.2129 117.014 36.6426C116.467 37.0723 115.754 37.5801 114.875 38.166C113.996 38.752 112.971 39.377 111.799 40.041C110.646 40.6855 109.416 41.2812 108.107 41.8281C106.818 42.375 105.471 42.8242 104.064 43.1758C102.658 43.5469 101.271 43.7324 99.9043 43.7324C98.7324 43.7324 97.6875 43.5078 96.7695 43.0586C95.8711 42.6094 95.0996 42.0039 94.4551 41.2422C93.8301 40.4805 93.3516 39.6016 93.0195 38.6055C92.6875 37.6094 92.5215 36.5645 92.5215 35.4707C92.5215 34.6309 92.6875 33.7129 93.0195 32.7168C93.3516 31.7012 93.8301 30.6855 94.4551 29.6699C95.0801 28.6543 95.8418 27.668 96.7402 26.7109C97.6582 25.7344 98.6836 24.875 99.8164 24.1328C100.949 23.3906 102.189 22.7949 103.537 22.3457C104.904 21.8965 106.359 21.6719 107.902 21.6719ZM125.598 25.9199C126.359 25.4512 127.141 25.0215 127.941 24.6309C128.762 24.2402 129.553 23.9082 130.314 23.6348C131.076 23.3418 131.799 23.1172 132.482 22.9609C133.186 22.7852 133.811 22.6973 134.357 22.6973C135.236 22.6973 135.91 22.9121 136.379 23.3418C136.867 23.752 137.111 24.4551 137.111 25.4512C137.111 25.666 137.102 25.9004 137.082 26.1543C137.062 26.3887 137.023 26.6426 136.965 26.916C136.867 27.4238 136.574 28.0195 136.086 28.7031C135.598 29.3867 135.021 30.0996 134.357 30.8418C133.713 31.584 133.01 32.3359 132.248 33.0977C131.506 33.8398 130.812 34.5332 130.168 35.1777C129.543 35.8027 129.016 36.3496 128.586 36.8184C128.176 37.2871 127.971 37.6094 127.971 37.7852C127.971 37.9414 127.98 38.0488 128 38.1074C128.02 38.166 128.107 38.1953 128.264 38.1953C129.318 37.7461 130.49 37.209 131.779 36.584C133.088 35.9395 134.387 35.2852 135.676 34.6211C136.965 33.957 138.186 33.3125 139.338 32.6875C140.49 32.043 141.467 31.4863 142.268 31.0176C142.443 30.9199 142.619 30.8418 142.795 30.7832C142.99 30.7051 143.166 30.666 143.322 30.666C143.674 30.666 143.967 30.7832 144.201 31.0176C144.436 31.252 144.553 31.5645 144.553 31.9551C144.553 32.4043 144.357 32.9219 143.967 33.5078C143.596 34.0742 142.961 34.6699 142.062 35.2949C141.379 35.7246 140.607 36.2129 139.748 36.7598C138.908 37.2871 138.02 37.8438 137.082 38.4297C136.164 38.9961 135.227 39.5527 134.27 40.0996C133.332 40.6465 132.424 41.1348 131.545 41.5645C130.666 41.9941 129.836 42.3457 129.055 42.6191C128.293 42.873 127.629 43 127.062 43C125.715 43 124.699 42.6777 124.016 42.0332C123.352 41.3887 123.02 40.5586 123.02 39.543C123.02 39.3867 123.029 39.2695 123.049 39.1914C123.186 38.332 123.439 37.502 123.811 36.7012C124.182 35.9004 124.602 35.1387 125.07 34.416C125.539 33.6934 126.027 33.0098 126.535 32.3652C127.043 31.7012 127.502 31.0859 127.912 30.5195C128.342 29.9336 128.693 29.3965 128.967 28.9082C129.24 28.4199 129.377 27.9707 129.377 27.5605C129.377 27.4629 129.357 27.3652 129.318 27.2676C129.279 27.1699 129.191 27.1211 129.055 27.1211C128.82 27.1211 128.43 27.209 127.883 27.3848C127.355 27.5605 126.789 27.7949 126.184 28.0879C125.578 28.3809 125.002 28.7227 124.455 29.1133C123.908 29.4844 123.518 29.8848 123.283 30.3145C122.971 30.8613 122.609 31.5547 122.199 32.3945C121.789 33.2344 121.359 34.1133 120.91 35.0312C120.48 35.9492 120.061 36.8574 119.65 37.7559C119.24 38.6543 118.889 39.4258 118.596 40.0703C118.361 40.6367 118.049 41.1445 117.658 41.5938C117.287 42.043 116.877 42.4238 116.428 42.7363C115.979 43.0488 115.52 43.293 115.051 43.4688C114.582 43.6445 114.152 43.7324 113.762 43.7324C113.312 43.7324 112.951 43.6152 112.678 43.3809C112.424 43.1465 112.297 42.7656 112.297 42.2383C112.297 42.0234 112.326 41.7598 112.385 41.4473C112.463 41.1152 112.609 40.7539 112.824 40.3633C113.176 39.6992 113.527 38.9766 113.879 38.1953C114.25 37.4141 114.67 36.5254 115.139 35.5293C115.607 34.5137 116.145 33.3613 116.75 32.0723C117.375 30.7637 118.107 29.2598 118.947 27.5605C118.674 27.3262 118.439 27.043 118.244 26.7109C118.068 26.3594 117.98 25.9297 117.98 25.4219C117.98 24.9531 118.078 24.5527 118.273 24.2207C118.469 23.8691 118.732 23.5859 119.064 23.3711C119.396 23.1562 119.777 23 120.207 22.9023C120.656 22.7852 121.125 22.7266 121.613 22.7266C122.121 22.7266 122.629 22.7754 123.137 22.873C123.645 22.9512 124.094 23.0781 124.484 23.2539C124.895 23.4297 125.227 23.6445 125.48 23.8984C125.734 24.1523 125.861 24.4453 125.861 24.7773C125.861 24.8359 125.842 24.9141 125.803 25.0117C125.764 25.1094 125.715 25.2168 125.656 25.334C125.617 25.4512 125.578 25.5586 125.539 25.6562C125.5 25.7539 125.48 25.832 125.48 25.8906C125.48 25.9297 125.49 25.9492 125.51 25.9492H125.539L125.598 25.9199ZM147.16 17.6582C147.16 17.209 147.238 16.75 147.395 16.2812C147.57 15.793 147.824 15.3535 148.156 14.9629C148.488 14.5723 148.898 14.25 149.387 13.9961C149.895 13.7422 150.49 13.6152 151.174 13.6152C152.307 13.6152 153.098 13.8398 153.547 14.2891C153.996 14.7188 154.221 15.2656 154.221 15.9297C154.221 16.3008 154.143 16.7109 153.986 17.1602C153.85 17.6094 153.635 18.0293 153.342 18.4199C153.049 18.791 152.668 19.1035 152.199 19.3574C151.73 19.6113 151.174 19.7383 150.529 19.7383C149.318 19.7383 148.469 19.5527 147.98 19.1816C147.492 18.791 147.219 18.2832 147.16 17.6582ZM143.938 24.25C144.27 23.7031 144.65 23.3125 145.08 23.0781C145.51 22.8438 145.949 22.7266 146.398 22.7266C147.141 22.7266 147.775 22.9707 148.303 23.459C148.85 23.9277 149.123 24.5332 149.123 25.2754C149.104 25.4512 149.074 25.627 149.035 25.8027C149.016 25.9785 148.957 26.1543 148.859 26.3301C148.586 26.8379 148.361 27.2676 148.186 27.6191C148.01 27.9707 147.844 28.3027 147.688 28.6152C147.551 28.9082 147.414 29.2012 147.277 29.4941C147.141 29.7871 146.975 30.1387 146.779 30.5488C146.545 31.0371 146.281 31.5742 145.988 32.1602C145.695 32.7266 145.412 33.3125 145.139 33.918C144.885 34.5234 144.66 35.1191 144.465 35.7051C144.289 36.291 144.201 36.8281 144.201 37.3164C144.201 37.8438 144.328 38.1953 144.582 38.3711C144.855 38.5273 145.236 38.6055 145.725 38.6055C146.271 38.6055 146.838 38.4883 147.424 38.2539C148.029 38.0195 148.635 37.7168 149.24 37.3457C149.846 36.9746 150.441 36.5547 151.027 36.0859C151.613 35.5977 152.16 35.1094 152.668 34.6211C153.195 34.1328 153.674 33.6641 154.104 33.2148C154.553 32.7656 154.924 32.3652 155.217 32.0137C155.607 31.6426 155.998 31.457 156.389 31.457C156.74 31.457 157.023 31.6133 157.238 31.9258C157.473 32.2383 157.59 32.6387 157.59 33.127C157.59 33.5762 157.473 34.0547 157.238 34.5625C157.023 35.0703 156.662 35.5488 156.154 35.998C155.158 37.0137 154.143 37.9902 153.107 38.9277C152.072 39.8457 151.008 40.666 149.914 41.3887C148.84 42.0918 147.756 42.6582 146.662 43.0879C145.568 43.5176 144.465 43.7324 143.352 43.7324C141.77 43.7324 140.52 43.332 139.602 42.5312C138.703 41.7109 138.254 40.4414 138.254 38.7227C138.254 37.8242 138.381 36.9453 138.635 36.0859C138.889 35.2266 139.191 34.3965 139.543 33.5957C139.895 32.7754 140.266 31.9941 140.656 31.252C141.047 30.4902 141.379 29.7676 141.652 29.084C141.75 28.8301 141.916 28.4395 142.15 27.9121C142.404 27.3848 142.668 26.8477 142.941 26.3008C143.254 25.6562 143.586 24.9727 143.938 24.25ZM165.734 27.0039C164.816 27.0039 163.928 27.2383 163.068 27.707C162.209 28.1758 161.447 28.791 160.783 29.5527C160.119 30.3145 159.592 31.1738 159.201 32.1309C158.811 33.0684 158.615 34.0156 158.615 34.9727C158.615 35.3633 158.635 35.7734 158.674 36.2031C158.732 36.6133 158.85 36.9941 159.025 37.3457C159.201 37.6973 159.445 37.9902 159.758 38.2246C160.09 38.459 160.529 38.5762 161.076 38.5762C161.506 38.5762 162.004 38.3906 162.57 38.0195C163.156 37.6289 163.752 37.1406 164.357 36.5547C164.982 35.9492 165.588 35.2949 166.174 34.5918C166.76 33.8691 167.287 33.166 167.756 32.4824C168.225 31.7988 168.605 31.1836 168.898 30.6367C169.191 30.0898 169.338 29.6895 169.338 29.4355C169.338 29.0645 169.211 28.7324 168.957 28.4395C168.703 28.127 168.391 27.8633 168.02 27.6484C167.648 27.4336 167.248 27.2773 166.818 27.1797C166.408 27.0625 166.047 27.0039 165.734 27.0039ZM186.037 34.5625C185.686 34.8945 185.217 35.3535 184.631 35.9395C184.045 36.5254 183.371 37.1602 182.609 37.8438C181.867 38.5273 181.066 39.2207 180.207 39.9238C179.367 40.6074 178.498 41.2324 177.6 41.7988C176.721 42.3652 175.852 42.8242 174.992 43.1758C174.133 43.5469 173.322 43.7324 172.561 43.7324C171.877 43.7324 171.291 43.5859 170.803 43.293C170.314 43 169.904 42.6191 169.572 42.1504C169.26 41.6816 169.025 41.1543 168.869 40.5684C168.713 39.9629 168.635 39.3477 168.635 38.7227C168.635 38.3125 168.664 37.9121 168.723 37.5215C168.781 37.1113 168.879 36.7305 169.016 36.3789C168.41 37.1992 167.717 38.0488 166.936 38.9277C166.174 39.7871 165.344 40.5781 164.445 41.3008C163.566 42.0039 162.639 42.5801 161.662 43.0293C160.705 43.498 159.729 43.7324 158.732 43.7324C158.225 43.7324 157.629 43.625 156.945 43.4102C156.281 43.2148 155.646 42.8828 155.041 42.4141C154.436 41.9453 153.928 41.3398 153.518 40.5977C153.107 39.8555 152.902 38.9473 152.902 37.873C152.902 37.0723 153.02 36.1152 153.254 35.002C153.508 33.8887 153.879 32.7363 154.367 31.5449C154.875 30.334 155.51 29.1426 156.271 27.9707C157.053 26.7988 157.971 25.7539 159.025 24.8359C160.08 23.8984 161.281 23.1465 162.629 22.5801C163.977 21.9941 165.48 21.7012 167.141 21.7012C168 21.7012 168.752 21.8086 169.396 22.0234C170.041 22.2383 170.588 22.4727 171.037 22.7266C171.545 23.0391 171.994 23.3809 172.385 23.752C172.717 23.5762 173.059 23.4102 173.41 23.2539C173.703 23.1172 174.006 23 174.318 22.9023C174.65 22.7852 174.934 22.7266 175.168 22.7266C175.91 22.7266 176.516 22.9316 176.984 23.3418C177.453 23.752 177.688 24.2012 177.688 24.6895C177.688 24.8262 177.678 24.9336 177.658 25.0117C177.561 25.3828 177.404 25.8516 177.189 26.418C176.994 26.9844 176.77 27.6191 176.516 28.3223C176.262 29.0059 175.998 29.7285 175.725 30.4902C175.471 31.2324 175.236 31.9648 175.021 32.6875C174.807 33.4102 174.631 34.0938 174.494 34.7383C174.357 35.3633 174.289 35.9004 174.289 36.3496C174.289 36.9355 174.387 37.4238 174.582 37.8145C174.777 38.1855 175.109 38.3711 175.578 38.3711C175.871 38.3711 176.213 38.2832 176.604 38.1074C177.014 37.9121 177.453 37.6582 177.922 37.3457C178.391 37.0332 178.869 36.6816 179.357 36.291C179.865 35.8809 180.354 35.4707 180.822 35.0605C181.916 34.084 183.078 32.9707 184.309 31.7207C184.621 31.4668 184.924 31.3398 185.217 31.3398C185.607 31.3398 185.93 31.5352 186.184 31.9258C186.457 32.2969 186.594 32.7168 186.594 33.1855C186.594 33.7324 186.408 34.1914 186.037 34.5625Z" fill="white"/>
</g>
<defs>
<filter id="filter0_d_638_294" x="0.00195312" y="0.753906" width="189.592" height="58.3125" filterUnits="userSpaceOnUse" color-interpolation-filters="sRGB">
<feFlood flood-opacity="0" result="BackgroundImageFix"/>
<feColorMatrix in="SourceAlpha" type="matrix" values="0 0 0 0 0 0 0 0 0 0 0 0 0 0 0 0 0 0 127 0" result="hardAlpha"/>
<feOffset dx="3" dy="3"/>
<feComposite in2="hardAlpha" operator="out"/>
<feColorMatrix type="matrix" values="0 0 0 0 1 0 0 0 0 1 0 0 0 0 1 0 0 0 0.07 0"/>
<feBlend mode="normal" in2="BackgroundImageFix" result="effect1_dropShadow_638_294"/>
<feBlend mode="normal" in="SourceGraphic" in2="effect1_dropShadow_638_294" result="shape"/>
</filter>
</defs>
</svg>
