<svg width="40" height="40" viewBox="0 0 40 40" fill="none" xmlns="http://www.w3.org/2000/svg">
<g clip-path="url(#clip0_628_794)">
<path fill-rule="evenodd" clip-rule="evenodd" d="M20.2494 31.9301C19.9725 29.496 17.9062 27.6051 15.3981 27.6051C11.4992 27.5655 9.1481 32.0951 11.3731 35.2532L20.2494 31.9301Z" fill="#F5CA48"/>
<path fill-rule="evenodd" clip-rule="evenodd" d="M17.7126 23.728C20.3014 23.728 22.4002 21.6293 22.4002 19.0404C22.1704 12.8291 13.2538 12.8308 13.025 19.0405C13.025 21.6293 15.1236 23.728 17.7126 23.728Z" fill="#F5CA48"/>
<path d="M39.6861 22.7228C37.5863 17.6533 34.5695 13.1309 30.7194 9.28082C26.8694 5.43082 22.3469 2.41404 17.2756 0.313365C15.1472 -0.561419 12.7037 0.458446 11.829 2.58693C11.283 3.91524 11.475 5.36621 12.2139 6.48201L0.0497971 38.9446C-0.0576271 39.2314 0.0123744 39.5545 0.228863 39.7711C0.445977 39.9887 0.771531 40.0573 1.05529 39.9504L33.5279 27.7928C34.207 28.2397 35.0094 28.4847 35.8323 28.4847C36.3599 28.4847 36.896 28.384 37.4134 28.1713C39.5418 27.2965 40.5617 24.8532 39.6861 22.7228ZM13.432 7.6843C13.6406 7.81829 13.8641 7.9354 14.1013 8.03306C18.1065 9.69216 21.7067 12.1029 24.802 15.1982C27.8977 18.2938 30.3085 21.8943 31.9668 25.8978C32.0657 26.1385 32.1848 26.365 32.3211 26.5763L2.11547 37.885L13.432 7.6843ZM36.8194 26.7261C35.4877 27.2735 33.9594 26.6353 33.4112 25.3019C29.9896 16.9461 23.0541 10.0108 14.6985 6.58912C14.6978 6.58889 14.6971 6.58858 14.6965 6.58834C13.365 6.04107 12.7269 4.51244 13.2741 3.18093C13.8213 1.83676 15.3811 1.21495 16.6796 1.75777C26.4096 5.75122 34.2484 13.5898 38.2417 23.3187C38.789 24.6503 38.1509 26.1788 36.8194 26.7261Z" fill="#A82523"/>
<path d="M27.1325 23.3716H27.1318C26.7004 23.3716 26.3509 23.7213 26.3509 24.1528C26.3893 25.1878 27.8755 25.1879 27.9137 24.1528C27.9137 23.7213 27.5639 23.3716 27.1325 23.3716Z" fill="#A82523"/>
<path d="M21.9761 26.0084H21.9755C21.5441 26.0084 21.1946 26.3582 21.1946 26.7897C21.233 27.8247 22.7192 27.8248 22.7574 26.7897C22.7574 26.3582 22.4075 26.0084 21.9761 26.0084Z" fill="#A82523"/>
<path d="M10.2571 24.3091H10.2565C9.82506 24.3091 9.47552 24.6588 9.47552 25.0903C9.51396 26.1253 11.0001 26.1254 11.0383 25.0903C11.0383 24.6588 10.6885 24.3091 10.2571 24.3091Z" fill="#A82523"/>
<path d="M6.7414 32.2781H6.74078C6.30937 32.2781 5.95984 32.6278 5.95984 33.0593C5.99828 34.0943 7.48445 34.0944 7.52265 33.0593C7.52265 32.6278 7.17281 32.2781 6.7414 32.2781Z" fill="#A82523"/>
<path d="M14.8856 10.5979H14.8849C14.4535 10.5979 14.104 10.9477 14.104 11.3792C14.1424 12.4142 15.6286 12.4142 15.6668 11.3792C15.6668 10.9477 15.317 10.5979 14.8856 10.5979Z" fill="#A82523"/>
</g>
<defs>
<clipPath id="clip0_628_794">
<rect width="40" height="40" fill="white"/>
</clipPath>
</defs>
</svg>
