<svg width="197" height="82" viewBox="0 0 197 82" fill="none" xmlns="http://www.w3.org/2000/svg">
<g filter="url(#filter0_d_658_1720)">
<path d="M22.3535 44.2676C21.9824 45.0879 21.5723 46.0742 21.123 47.2266C20.6738 48.3789 20.1855 49.5801 19.6582 50.8301C19.1309 52.0801 18.5645 53.3203 17.959 54.5508C17.373 55.7812 16.748 56.8848 16.084 57.8613C15.4395 58.8184 14.7656 59.5996 14.0625 60.2051C13.3789 60.8105 12.6758 61.1133 11.9531 61.1133C11.3477 61.1133 10.8496 61.0156 10.459 60.8203C10.0684 60.6445 9.76562 60.4102 9.55078 60.1172C9.33594 59.8438 9.17969 59.541 9.08203 59.209C9.00391 58.8574 8.96484 58.5254 8.96484 58.2129C8.96484 57.7441 9.0332 57.2656 9.16992 56.7773C9.32617 56.2891 9.51172 55.8398 9.72656 55.4297L20.9473 34.7754C21.4355 33.916 21.8945 33.2422 22.3242 32.7539C22.7734 32.2656 23.1836 31.9043 23.5547 31.6699C23.9453 31.4355 24.2871 31.2988 24.5801 31.2598C24.873 31.2012 25.1172 31.1719 25.3125 31.1719C25.6641 31.1719 25.9863 31.2988 26.2793 31.5527C26.5723 31.7871 26.7188 32.2266 26.7188 32.8711C26.7188 33.4961 26.5527 34.3555 26.2207 35.4492C25.8887 36.543 25.2734 37.9492 24.375 39.668C25.8984 39.5508 27.4023 39.2969 28.8867 38.9062C30.3711 38.4961 31.6992 37.9395 32.8711 37.2363C34.0625 36.5332 35.0195 35.6836 35.7422 34.6875C36.4648 33.6719 36.8262 32.5 36.8262 31.1719C36.8262 30 36.6309 28.8867 36.2402 27.832C35.8691 26.7578 35.3125 25.8203 34.5703 25.0195C33.8477 24.1992 32.9492 23.5547 31.875 23.0859C30.8008 22.5977 29.5605 22.3535 28.1543 22.3535C26.2402 22.3535 24.5898 22.5391 23.2031 22.9102C21.8359 23.2617 20.6543 23.7305 19.6582 24.3164C18.6816 24.9023 17.8613 25.5762 17.1973 26.3379C16.5332 27.0996 15.957 27.8711 15.4688 28.6523C15 29.4336 14.5801 30.2051 14.209 30.9668C13.8379 31.7285 13.4473 32.4023 13.0371 32.9883C12.6465 33.5742 12.1973 34.0527 11.6895 34.4238C11.1816 34.7754 10.5566 34.9512 9.81445 34.9512C8.85742 34.9512 8.14453 34.707 7.67578 34.2188C7.22656 33.7305 7.00195 33.0371 7.00195 32.1387C7.00195 31.2402 7.24609 30.2637 7.73438 29.209C8.22266 28.1348 8.91602 27.0605 9.81445 25.9863C10.7129 24.9121 11.7969 23.8867 13.0664 22.9102C14.3555 21.9141 15.8008 21.0352 17.4023 20.2734C19.0039 19.5117 20.7422 18.9062 22.6172 18.457C24.5117 17.9883 26.5039 17.7539 28.5938 17.7539C30.5469 17.7539 32.4219 18.0371 34.2188 18.6035C36.0352 19.1504 37.6367 19.9805 39.0234 21.0938C40.4102 22.207 41.5137 23.6035 42.334 25.2832C43.1738 26.9434 43.5938 28.8965 43.5938 31.1426C43.5938 33.1934 43.0957 35.0488 42.0996 36.709C41.123 38.3496 39.7949 39.7461 38.1152 40.8984C36.4551 42.0312 34.5312 42.9102 32.3438 43.5352C30.1562 44.1406 27.8516 44.4434 25.4297 44.4434C24.9219 44.4434 24.4043 44.4336 23.877 44.4141C23.3691 44.3945 22.8613 44.3457 22.3535 44.2676ZM45.0586 34.6582C45.0586 34.209 45.1367 33.75 45.293 33.2812C45.4688 32.793 45.7227 32.3535 46.0547 31.9629C46.3867 31.5723 46.7969 31.25 47.2852 30.9961C47.793 30.7422 48.3887 30.6152 49.0723 30.6152C50.2051 30.6152 50.9961 30.8398 51.4453 31.2891C51.8945 31.7188 52.1191 32.2656 52.1191 32.9297C52.1191 33.3008 52.041 33.7109 51.8848 34.1602C51.748 34.6094 51.5332 35.0293 51.2402 35.4199C50.9473 35.791 50.5664 36.1035 50.0977 36.3574C49.6289 36.6113 49.0723 36.7383 48.4277 36.7383C47.2168 36.7383 46.3672 36.5527 45.8789 36.1816C45.3906 35.791 45.1172 35.2832 45.0586 34.6582ZM41.8359 41.25C42.168 40.7031 42.5488 40.3125 42.9785 40.0781C43.4082 39.8438 43.8477 39.7266 44.2969 39.7266C45.0391 39.7266 45.6738 39.9707 46.2012 40.459C46.748 40.9277 47.0215 41.5332 47.0215 42.2754C47.002 42.4512 46.9727 42.627 46.9336 42.8027C46.9141 42.9785 46.8555 43.1543 46.7578 43.3301C46.4844 43.8379 46.2598 44.2676 46.084 44.6191C45.9082 44.9707 45.7422 45.3027 45.5859 45.6152C45.4492 45.9082 45.3125 46.2012 45.1758 46.4941C45.0391 46.7871 44.873 47.1387 44.6777 47.5488C44.4434 48.0371 44.1797 48.5742 43.8867 49.1602C43.5938 49.7266 43.3105 50.3125 43.0371 50.918C42.7832 51.5234 42.5586 52.1191 42.3633 52.7051C42.1875 53.291 42.0996 53.8281 42.0996 54.3164C42.0996 54.8438 42.2266 55.1953 42.4805 55.3711C42.7539 55.5273 43.1348 55.6055 43.623 55.6055C44.1699 55.6055 44.7363 55.4883 45.3223 55.2539C45.9277 55.0195 46.5332 54.7168 47.1387 54.3457C47.7441 53.9746 48.3398 53.5547 48.9258 53.0859C49.5117 52.5977 50.0586 52.1094 50.5664 51.6211C51.0938 51.1328 51.5723 50.6641 52.002 50.2148C52.4512 49.7656 52.8223 49.3652 53.1152 49.0137C53.5059 48.6426 53.8965 48.457 54.2871 48.457C54.6387 48.457 54.9219 48.6133 55.1367 48.9258C55.3711 49.2383 55.4883 49.6387 55.4883 50.127C55.4883 50.5762 55.3711 51.0547 55.1367 51.5625C54.9219 52.0703 54.5605 52.5488 54.0527 52.998C53.0566 54.0137 52.041 54.9902 51.0059 55.9277C49.9707 56.8457 48.9062 57.666 47.8125 58.3887C46.7383 59.0918 45.6543 59.6582 44.5605 60.0879C43.4668 60.5176 42.3633 60.7324 41.25 60.7324C39.668 60.7324 38.418 60.332 37.5 59.5312C36.6016 58.7109 36.1523 57.4414 36.1523 55.7227C36.1523 54.8242 36.2793 53.9453 36.5332 53.0859C36.7871 52.2266 37.0898 51.3965 37.4414 50.5957C37.793 49.7754 38.1641 48.9941 38.5547 48.252C38.9453 47.4902 39.2773 46.7676 39.5508 46.084C39.6484 45.8301 39.8145 45.4395 40.0488 44.9121C40.3027 44.3848 40.5664 43.8477 40.8398 43.3008C41.1523 42.6562 41.4844 41.9727 41.8359 41.25ZM61.6406 62.4609C61.6406 62.3047 61.6406 62.1484 61.6406 61.9922C61.6406 61.8555 61.6309 61.709 61.6113 61.5527C60.2441 62.2559 59.0234 62.9199 57.9492 63.5449C56.8945 64.1699 55.9961 64.7461 55.2539 65.2734C54.5312 65.8008 53.9746 66.2695 53.584 66.6797C53.2129 67.1094 53.0273 67.4512 53.0273 67.7051C53.0273 68.2129 53.2129 68.6328 53.584 68.9648C53.9746 69.3164 54.5117 69.4922 55.1953 69.4922C55.7227 69.4922 56.3477 69.2676 57.0703 68.8184C57.793 68.3887 58.4863 67.832 59.1504 67.1484C59.8145 66.4648 60.3809 65.7031 60.8496 64.8633C61.3379 64.043 61.6016 63.2422 61.6406 62.4609ZM79.3945 46.0547C79.5508 45.918 79.707 45.8398 79.8633 45.8203C80.0391 45.7812 80.2051 45.752 80.3613 45.7324C80.8105 45.7324 81.2109 45.9082 81.5625 46.2598C81.9141 46.6113 82.0898 46.9922 82.0898 47.4023C82.0898 47.5781 82.0508 47.7344 81.9727 47.8711C81.9141 48.0078 81.8164 48.1543 81.6797 48.3105C81.0547 49.0137 80.3027 49.7266 79.4238 50.4492C78.5645 51.1719 77.5391 51.9434 76.3477 52.7637C75.1758 53.584 73.8184 54.4727 72.2754 55.4297C70.7324 56.3867 68.9648 57.4512 66.9727 58.623C66.9727 58.7402 66.9727 58.8672 66.9727 59.0039C66.9922 59.1211 67.002 59.248 67.002 59.3848C67.002 60.3809 66.8066 61.4062 66.416 62.4609C66.0449 63.5156 65.5273 64.5508 64.8633 65.5664C64.2188 66.582 63.457 67.5391 62.5781 68.4375C61.7188 69.3555 60.8008 70.1562 59.8242 70.8398C58.8672 71.5234 57.8809 72.0605 56.8652 72.4512C55.8496 72.8613 54.873 73.0664 53.9355 73.0664C52.998 73.0664 52.1387 72.9492 51.3574 72.7148C50.5957 72.5 49.9414 72.1777 49.3945 71.748C48.8477 71.3379 48.4277 70.8398 48.1348 70.2539C47.8418 69.6875 47.6953 69.0527 47.6953 68.3496C47.6953 67.7051 47.9297 67.0117 48.3984 66.2695C48.8672 65.5273 49.6094 64.7266 50.625 63.8672C51.6406 63.0273 52.9492 62.1094 54.5508 61.1133C56.1523 60.1367 58.0762 59.0723 60.3223 57.9199C59.9902 57.7832 59.6387 57.7051 59.2676 57.6855C58.916 57.666 58.5742 57.6562 58.2422 57.6562C57.793 57.6562 57.2754 57.666 56.6895 57.6855C56.1035 57.7051 55.5078 57.7148 54.9023 57.7148C54.4336 57.7148 53.9844 57.7051 53.5547 57.6855C53.125 57.666 52.7344 57.627 52.3828 57.5684C52.0508 57.5098 51.7871 57.4219 51.5918 57.3047C51.3965 57.168 51.2988 56.9922 51.2988 56.7773C51.2988 56.3672 51.4062 55.9473 51.6211 55.5176C51.8359 55.0684 52.2266 54.541 52.793 53.9355C53.3789 53.3105 54.1602 52.5684 55.1367 51.709C56.1328 50.8301 57.4023 49.7656 58.9453 48.5156L65.1855 43.916C65.0488 43.916 63.9844 43.9453 61.9922 44.0039C60 44.0625 57.2168 44.0918 53.6426 44.0918C53.1348 44.0918 52.7637 43.9551 52.5293 43.6816C52.2949 43.4082 52.1777 43.1445 52.1777 42.8906C52.1973 42.5977 52.2559 42.2754 52.3535 41.9238C52.4707 41.5723 52.627 41.25 52.8223 40.957C53.0176 40.6445 53.252 40.3809 53.5254 40.166C53.8184 39.9512 54.1504 39.8438 54.5215 39.8438C54.9121 39.8438 55.5469 39.8438 56.4258 39.8438C57.3047 39.8242 58.3008 39.8145 59.4141 39.8145C60.5273 39.8145 61.6895 39.8047 62.9004 39.7852C64.1113 39.7656 65.2441 39.7559 66.2988 39.7559C67.3535 39.7559 68.2617 39.7559 69.0234 39.7559C69.7852 39.7363 70.2832 39.7266 70.5176 39.7266C70.8691 39.7266 71.1523 39.7852 71.3672 39.9023C71.582 40.0195 71.748 40.166 71.8652 40.3418C71.9824 40.5176 72.0605 40.7129 72.0996 40.9277C72.1387 41.123 72.1582 41.3086 72.1582 41.4844C72.1582 41.8359 72.0801 42.1875 71.9238 42.5391C71.7871 42.8906 71.5527 43.2617 71.2207 43.6523C70.9082 44.043 70.4883 44.4629 69.9609 44.9121C69.4336 45.3418 68.7988 45.8301 68.0566 46.377C67.9199 46.4746 67.6758 46.6504 67.3242 46.9043C66.9922 47.1582 66.5918 47.4609 66.123 47.8125C65.6543 48.1445 65.1367 48.5156 64.5703 48.9258C64.0234 49.3359 63.4766 49.7461 62.9297 50.1562C61.6211 51.1133 60.1855 52.168 58.623 53.3203H59.2383C60.4883 53.3203 61.6602 53.4961 62.7539 53.8477C63.8477 54.1992 64.7656 54.6777 65.5078 55.2832C67.168 54.3652 68.6816 53.4961 70.0488 52.6758C71.4355 51.8555 72.6855 51.0742 73.7988 50.332C74.9316 49.5703 75.957 48.8379 76.875 48.1348C77.793 47.4316 78.6328 46.7383 79.3945 46.0547ZM86.4844 62.4609C86.4844 62.3047 86.4844 62.1484 86.4844 61.9922C86.4844 61.8555 86.4746 61.709 86.4551 61.5527C85.0879 62.2559 83.8672 62.9199 82.793 63.5449C81.7383 64.1699 80.8398 64.7461 80.0977 65.2734C79.375 65.8008 78.8184 66.2695 78.4277 66.6797C78.0566 67.1094 77.8711 67.4512 77.8711 67.7051C77.8711 68.2129 78.0566 68.6328 78.4277 68.9648C78.8184 69.3164 79.3555 69.4922 80.0391 69.4922C80.5664 69.4922 81.1914 69.2676 81.9141 68.8184C82.6367 68.3887 83.3301 67.832 83.9941 67.1484C84.6582 66.4648 85.2246 65.7031 85.6934 64.8633C86.1816 64.043 86.4453 63.2422 86.4844 62.4609ZM104.238 46.0547C104.395 45.918 104.551 45.8398 104.707 45.8203C104.883 45.7812 105.049 45.752 105.205 45.7324C105.654 45.7324 106.055 45.9082 106.406 46.2598C106.758 46.6113 106.934 46.9922 106.934 47.4023C106.934 47.5781 106.895 47.7344 106.816 47.8711C106.758 48.0078 106.66 48.1543 106.523 48.3105C105.898 49.0137 105.146 49.7266 104.268 50.4492C103.408 51.1719 102.383 51.9434 101.191 52.7637C100.02 53.584 98.6621 54.4727 97.1191 55.4297C95.5762 56.3867 93.8086 57.4512 91.8164 58.623C91.8164 58.7402 91.8164 58.8672 91.8164 59.0039C91.8359 59.1211 91.8457 59.248 91.8457 59.3848C91.8457 60.3809 91.6504 61.4062 91.2598 62.4609C90.8887 63.5156 90.3711 64.5508 89.707 65.5664C89.0625 66.582 88.3008 67.5391 87.4219 68.4375C86.5625 69.3555 85.6445 70.1562 84.668 70.8398C83.7109 71.5234 82.7246 72.0605 81.709 72.4512C80.6934 72.8613 79.7168 73.0664 78.7793 73.0664C77.8418 73.0664 76.9824 72.9492 76.2012 72.7148C75.4395 72.5 74.7852 72.1777 74.2383 71.748C73.6914 71.3379 73.2715 70.8398 72.9785 70.2539C72.6855 69.6875 72.5391 69.0527 72.5391 68.3496C72.5391 67.7051 72.7734 67.0117 73.2422 66.2695C73.7109 65.5273 74.4531 64.7266 75.4688 63.8672C76.4844 63.0273 77.793 62.1094 79.3945 61.1133C80.9961 60.1367 82.9199 59.0723 85.166 57.9199C84.834 57.7832 84.4824 57.7051 84.1113 57.6855C83.7598 57.666 83.418 57.6562 83.0859 57.6562C82.6367 57.6562 82.1191 57.666 81.5332 57.6855C80.9473 57.7051 80.3516 57.7148 79.7461 57.7148C79.2773 57.7148 78.8281 57.7051 78.3984 57.6855C77.9688 57.666 77.5781 57.627 77.2266 57.5684C76.8945 57.5098 76.6309 57.4219 76.4355 57.3047C76.2402 57.168 76.1426 56.9922 76.1426 56.7773C76.1426 56.3672 76.25 55.9473 76.4648 55.5176C76.6797 55.0684 77.0703 54.541 77.6367 53.9355C78.2227 53.3105 79.0039 52.5684 79.9805 51.709C80.9766 50.8301 82.2461 49.7656 83.7891 48.5156L90.0293 43.916C89.8926 43.916 88.8281 43.9453 86.8359 44.0039C84.8438 44.0625 82.0605 44.0918 78.4863 44.0918C77.9785 44.0918 77.6074 43.9551 77.373 43.6816C77.1387 43.4082 77.0215 43.1445 77.0215 42.8906C77.041 42.5977 77.0996 42.2754 77.1973 41.9238C77.3145 41.5723 77.4707 41.25 77.666 40.957C77.8613 40.6445 78.0957 40.3809 78.3691 40.166C78.6621 39.9512 78.9941 39.8438 79.3652 39.8438C79.7559 39.8438 80.3906 39.8438 81.2695 39.8438C82.1484 39.8242 83.1445 39.8145 84.2578 39.8145C85.3711 39.8145 86.5332 39.8047 87.7441 39.7852C88.9551 39.7656 90.0879 39.7559 91.1426 39.7559C92.1973 39.7559 93.1055 39.7559 93.8672 39.7559C94.6289 39.7363 95.127 39.7266 95.3613 39.7266C95.7129 39.7266 95.9961 39.7852 96.2109 39.9023C96.4258 40.0195 96.5918 40.166 96.709 40.3418C96.8262 40.5176 96.9043 40.7129 96.9434 40.9277C96.9824 41.123 97.002 41.3086 97.002 41.4844C97.002 41.8359 96.9238 42.1875 96.7676 42.5391C96.6309 42.8906 96.3965 43.2617 96.0645 43.6523C95.752 44.043 95.332 44.4629 94.8047 44.9121C94.2773 45.3418 93.6426 45.8301 92.9004 46.377C92.7637 46.4746 92.5195 46.6504 92.168 46.9043C91.8359 47.1582 91.4355 47.4609 90.9668 47.8125C90.498 48.1445 89.9805 48.5156 89.4141 48.9258C88.8672 49.3359 88.3203 49.7461 87.7734 50.1562C86.4648 51.1133 85.0293 52.168 83.4668 53.3203H84.082C85.332 53.3203 86.5039 53.4961 87.5977 53.8477C88.6914 54.1992 89.6094 54.6777 90.3516 55.2832C92.0117 54.3652 93.5254 53.4961 94.8926 52.6758C96.2793 51.8555 97.5293 51.0742 98.6426 50.332C99.7754 49.5703 100.801 48.8379 101.719 48.1348C102.637 47.4316 103.477 46.7383 104.238 46.0547ZM113.848 42.7148C113.75 42.6953 113.662 42.6855 113.584 42.6855C113.506 42.6855 113.418 42.6855 113.32 42.6855C112.578 42.6855 111.885 42.832 111.24 43.125C110.596 43.418 110 43.8086 109.453 44.2969C108.926 44.7656 108.447 45.3027 108.018 45.9082C107.607 46.5137 107.236 47.1191 106.904 47.7246C106.572 48.3105 106.289 48.877 106.055 49.4238C105.84 49.9707 105.674 50.4297 105.557 50.8008C106.24 50.4492 106.943 50.0488 107.666 49.5996C108.408 49.1504 109.102 48.7207 109.746 48.3105C110.391 47.9004 110.947 47.5293 111.416 47.1973C111.904 46.8652 112.246 46.6406 112.441 46.5234C113.32 45.9766 113.926 45.4688 114.258 45C114.59 44.5117 114.756 44.0918 114.756 43.7402C114.756 43.4473 114.658 43.2129 114.463 43.0371C114.287 42.8613 114.082 42.7539 113.848 42.7148ZM114.902 38.6719C116.523 38.6719 117.734 39.0625 118.535 39.8438C119.336 40.625 119.736 41.709 119.736 43.0957C119.736 43.916 119.521 44.7754 119.092 45.6738C118.662 46.5723 117.92 47.4902 116.865 48.4277C115.811 49.3457 114.395 50.293 112.617 51.2695C110.859 52.2266 108.652 53.1934 105.996 54.1699C106.094 54.7363 106.396 55.1855 106.904 55.5176C107.412 55.8301 108.086 55.9863 108.926 55.9863C109.824 55.9863 110.781 55.8594 111.797 55.6055C112.832 55.332 113.848 54.9902 114.844 54.5801C115.859 54.1699 116.846 53.7305 117.803 53.2617C118.76 52.7734 119.619 52.3145 120.381 51.8848C121.162 51.4551 121.807 51.084 122.314 50.7715C122.842 50.459 123.193 50.2637 123.369 50.1855C123.545 50.0684 123.701 50 123.838 49.9805C123.994 49.9609 124.131 49.9512 124.248 49.9512C124.482 49.9512 124.678 50.0098 124.834 50.127C124.99 50.2246 125.117 50.3516 125.215 50.5078C125.332 50.6445 125.41 50.8008 125.449 50.9766C125.488 51.1328 125.508 51.2695 125.508 51.3867C125.508 51.5625 125.488 51.7773 125.449 52.0312C125.41 52.2656 125.264 52.5391 125.01 52.8516C124.912 52.9492 124.58 53.2129 124.014 53.6426C123.467 54.0723 122.754 54.5801 121.875 55.166C120.996 55.752 119.971 56.377 118.799 57.041C117.646 57.6855 116.416 58.2812 115.107 58.8281C113.818 59.375 112.471 59.8242 111.064 60.1758C109.658 60.5469 108.271 60.7324 106.904 60.7324C105.732 60.7324 104.688 60.5078 103.77 60.0586C102.871 59.6094 102.1 59.0039 101.455 58.2422C100.83 57.4805 100.352 56.6016 100.02 55.6055C99.6875 54.6094 99.5215 53.5645 99.5215 52.4707C99.5215 51.6309 99.6875 50.7129 100.02 49.7168C100.352 48.7012 100.83 47.6855 101.455 46.6699C102.08 45.6543 102.842 44.668 103.74 43.7109C104.658 42.7344 105.684 41.875 106.816 41.1328C107.949 40.3906 109.189 39.7949 110.537 39.3457C111.904 38.8965 113.359 38.6719 114.902 38.6719ZM132.598 42.9199C133.359 42.4512 134.141 42.0215 134.941 41.6309C135.762 41.2402 136.553 40.9082 137.314 40.6348C138.076 40.3418 138.799 40.1172 139.482 39.9609C140.186 39.7852 140.811 39.6973 141.357 39.6973C142.236 39.6973 142.91 39.9121 143.379 40.3418C143.867 40.752 144.111 41.4551 144.111 42.4512C144.111 42.666 144.102 42.9004 144.082 43.1543C144.062 43.3887 144.023 43.6426 143.965 43.916C143.867 44.4238 143.574 45.0195 143.086 45.7031C142.598 46.3867 142.021 47.0996 141.357 47.8418C140.713 48.584 140.01 49.3359 139.248 50.0977C138.506 50.8398 137.812 51.5332 137.168 52.1777C136.543 52.8027 136.016 53.3496 135.586 53.8184C135.176 54.2871 134.971 54.6094 134.971 54.7852C134.971 54.9414 134.98 55.0488 135 55.1074C135.02 55.166 135.107 55.1953 135.264 55.1953C136.318 54.7461 137.49 54.209 138.779 53.584C140.088 52.9395 141.387 52.2852 142.676 51.6211C143.965 50.957 145.186 50.3125 146.338 49.6875C147.49 49.043 148.467 48.4863 149.268 48.0176C149.443 47.9199 149.619 47.8418 149.795 47.7832C149.99 47.7051 150.166 47.666 150.322 47.666C150.674 47.666 150.967 47.7832 151.201 48.0176C151.436 48.252 151.553 48.5645 151.553 48.9551C151.553 49.4043 151.357 49.9219 150.967 50.5078C150.596 51.0742 149.961 51.6699 149.062 52.2949C148.379 52.7246 147.607 53.2129 146.748 53.7598C145.908 54.2871 145.02 54.8438 144.082 55.4297C143.164 55.9961 142.227 56.5527 141.27 57.0996C140.332 57.6465 139.424 58.1348 138.545 58.5645C137.666 58.9941 136.836 59.3457 136.055 59.6191C135.293 59.873 134.629 60 134.062 60C132.715 60 131.699 59.6777 131.016 59.0332C130.352 58.3887 130.02 57.5586 130.02 56.543C130.02 56.3867 130.029 56.2695 130.049 56.1914C130.186 55.332 130.439 54.502 130.811 53.7012C131.182 52.9004 131.602 52.1387 132.07 51.416C132.539 50.6934 133.027 50.0098 133.535 49.3652C134.043 48.7012 134.502 48.0859 134.912 47.5195C135.342 46.9336 135.693 46.3965 135.967 45.9082C136.24 45.4199 136.377 44.9707 136.377 44.5605C136.377 44.4629 136.357 44.3652 136.318 44.2676C136.279 44.1699 136.191 44.1211 136.055 44.1211C135.82 44.1211 135.43 44.209 134.883 44.3848C134.355 44.5605 133.789 44.7949 133.184 45.0879C132.578 45.3809 132.002 45.7227 131.455 46.1133C130.908 46.4844 130.518 46.8848 130.283 47.3145C129.971 47.8613 129.609 48.5547 129.199 49.3945C128.789 50.2344 128.359 51.1133 127.91 52.0312C127.48 52.9492 127.061 53.8574 126.65 54.7559C126.24 55.6543 125.889 56.4258 125.596 57.0703C125.361 57.6367 125.049 58.1445 124.658 58.5938C124.287 59.043 123.877 59.4238 123.428 59.7363C122.979 60.0488 122.52 60.293 122.051 60.4688C121.582 60.6445 121.152 60.7324 120.762 60.7324C120.312 60.7324 119.951 60.6152 119.678 60.3809C119.424 60.1465 119.297 59.7656 119.297 59.2383C119.297 59.0234 119.326 58.7598 119.385 58.4473C119.463 58.1152 119.609 57.7539 119.824 57.3633C120.176 56.6992 120.527 55.9766 120.879 55.1953C121.25 54.4141 121.67 53.5254 122.139 52.5293C122.607 51.5137 123.145 50.3613 123.75 49.0723C124.375 47.7637 125.107 46.2598 125.947 44.5605C125.674 44.3262 125.439 44.043 125.244 43.7109C125.068 43.3594 124.98 42.9297 124.98 42.4219C124.98 41.9531 125.078 41.5527 125.273 41.2207C125.469 40.8691 125.732 40.5859 126.064 40.3711C126.396 40.1562 126.777 40 127.207 39.9023C127.656 39.7852 128.125 39.7266 128.613 39.7266C129.121 39.7266 129.629 39.7754 130.137 39.873C130.645 39.9512 131.094 40.0781 131.484 40.2539C131.895 40.4297 132.227 40.6445 132.48 40.8984C132.734 41.1523 132.861 41.4453 132.861 41.7773C132.861 41.8359 132.842 41.9141 132.803 42.0117C132.764 42.1094 132.715 42.2168 132.656 42.334C132.617 42.4512 132.578 42.5586 132.539 42.6562C132.5 42.7539 132.48 42.832 132.48 42.8906C132.48 42.9297 132.49 42.9492 132.51 42.9492H132.539L132.598 42.9199ZM154.16 34.6582C154.16 34.209 154.238 33.75 154.395 33.2812C154.57 32.793 154.824 32.3535 155.156 31.9629C155.488 31.5723 155.898 31.25 156.387 30.9961C156.895 30.7422 157.49 30.6152 158.174 30.6152C159.307 30.6152 160.098 30.8398 160.547 31.2891C160.996 31.7188 161.221 32.2656 161.221 32.9297C161.221 33.3008 161.143 33.7109 160.986 34.1602C160.85 34.6094 160.635 35.0293 160.342 35.4199C160.049 35.791 159.668 36.1035 159.199 36.3574C158.73 36.6113 158.174 36.7383 157.529 36.7383C156.318 36.7383 155.469 36.5527 154.98 36.1816C154.492 35.791 154.219 35.2832 154.16 34.6582ZM150.938 41.25C151.27 40.7031 151.65 40.3125 152.08 40.0781C152.51 39.8438 152.949 39.7266 153.398 39.7266C154.141 39.7266 154.775 39.9707 155.303 40.459C155.85 40.9277 156.123 41.5332 156.123 42.2754C156.104 42.4512 156.074 42.627 156.035 42.8027C156.016 42.9785 155.957 43.1543 155.859 43.3301C155.586 43.8379 155.361 44.2676 155.186 44.6191C155.01 44.9707 154.844 45.3027 154.688 45.6152C154.551 45.9082 154.414 46.2012 154.277 46.4941C154.141 46.7871 153.975 47.1387 153.779 47.5488C153.545 48.0371 153.281 48.5742 152.988 49.1602C152.695 49.7266 152.412 50.3125 152.139 50.918C151.885 51.5234 151.66 52.1191 151.465 52.7051C151.289 53.291 151.201 53.8281 151.201 54.3164C151.201 54.8438 151.328 55.1953 151.582 55.3711C151.855 55.5273 152.236 55.6055 152.725 55.6055C153.271 55.6055 153.838 55.4883 154.424 55.2539C155.029 55.0195 155.635 54.7168 156.24 54.3457C156.846 53.9746 157.441 53.5547 158.027 53.0859C158.613 52.5977 159.16 52.1094 159.668 51.6211C160.195 51.1328 160.674 50.6641 161.104 50.2148C161.553 49.7656 161.924 49.3652 162.217 49.0137C162.607 48.6426 162.998 48.457 163.389 48.457C163.74 48.457 164.023 48.6133 164.238 48.9258C164.473 49.2383 164.59 49.6387 164.59 50.127C164.59 50.5762 164.473 51.0547 164.238 51.5625C164.023 52.0703 163.662 52.5488 163.154 52.998C162.158 54.0137 161.143 54.9902 160.107 55.9277C159.072 56.8457 158.008 57.666 156.914 58.3887C155.84 59.0918 154.756 59.6582 153.662 60.0879C152.568 60.5176 151.465 60.7324 150.352 60.7324C148.77 60.7324 147.52 60.332 146.602 59.5312C145.703 58.7109 145.254 57.4414 145.254 55.7227C145.254 54.8242 145.381 53.9453 145.635 53.0859C145.889 52.2266 146.191 51.3965 146.543 50.5957C146.895 49.7754 147.266 48.9941 147.656 48.252C148.047 47.4902 148.379 46.7676 148.652 46.084C148.75 45.8301 148.916 45.4395 149.15 44.9121C149.404 44.3848 149.668 43.8477 149.941 43.3008C150.254 42.6562 150.586 41.9727 150.938 41.25ZM172.734 44.0039C171.816 44.0039 170.928 44.2383 170.068 44.707C169.209 45.1758 168.447 45.791 167.783 46.5527C167.119 47.3145 166.592 48.1738 166.201 49.1309C165.811 50.0684 165.615 51.0156 165.615 51.9727C165.615 52.3633 165.635 52.7734 165.674 53.2031C165.732 53.6133 165.85 53.9941 166.025 54.3457C166.201 54.6973 166.445 54.9902 166.758 55.2246C167.09 55.459 167.529 55.5762 168.076 55.5762C168.506 55.5762 169.004 55.3906 169.57 55.0195C170.156 54.6289 170.752 54.1406 171.357 53.5547C171.982 52.9492 172.588 52.2949 173.174 51.5918C173.76 50.8691 174.287 50.166 174.756 49.4824C175.225 48.7988 175.605 48.1836 175.898 47.6367C176.191 47.0898 176.338 46.6895 176.338 46.4355C176.338 46.0645 176.211 45.7324 175.957 45.4395C175.703 45.127 175.391 44.8633 175.02 44.6484C174.648 44.4336 174.248 44.2773 173.818 44.1797C173.408 44.0625 173.047 44.0039 172.734 44.0039ZM193.037 51.5625C192.686 51.8945 192.217 52.3535 191.631 52.9395C191.045 53.5254 190.371 54.1602 189.609 54.8438C188.867 55.5273 188.066 56.2207 187.207 56.9238C186.367 57.6074 185.498 58.2324 184.6 58.7988C183.721 59.3652 182.852 59.8242 181.992 60.1758C181.133 60.5469 180.322 60.7324 179.561 60.7324C178.877 60.7324 178.291 60.5859 177.803 60.293C177.314 60 176.904 59.6191 176.572 59.1504C176.26 58.6816 176.025 58.1543 175.869 57.5684C175.713 56.9629 175.635 56.3477 175.635 55.7227C175.635 55.3125 175.664 54.9121 175.723 54.5215C175.781 54.1113 175.879 53.7305 176.016 53.3789C175.41 54.1992 174.717 55.0488 173.936 55.9277C173.174 56.7871 172.344 57.5781 171.445 58.3008C170.566 59.0039 169.639 59.5801 168.662 60.0293C167.705 60.498 166.729 60.7324 165.732 60.7324C165.225 60.7324 164.629 60.625 163.945 60.4102C163.281 60.2148 162.646 59.8828 162.041 59.4141C161.436 58.9453 160.928 58.3398 160.518 57.5977C160.107 56.8555 159.902 55.9473 159.902 54.873C159.902 54.0723 160.02 53.1152 160.254 52.002C160.508 50.8887 160.879 49.7363 161.367 48.5449C161.875 47.334 162.51 46.1426 163.271 44.9707C164.053 43.7988 164.971 42.7539 166.025 41.8359C167.08 40.8984 168.281 40.1465 169.629 39.5801C170.977 38.9941 172.48 38.7012 174.141 38.7012C175 38.7012 175.752 38.8086 176.396 39.0234C177.041 39.2383 177.588 39.4727 178.037 39.7266C178.545 40.0391 178.994 40.3809 179.385 40.752C179.717 40.5762 180.059 40.4102 180.41 40.2539C180.703 40.1172 181.006 40 181.318 39.9023C181.65 39.7852 181.934 39.7266 182.168 39.7266C182.91 39.7266 183.516 39.9316 183.984 40.3418C184.453 40.752 184.688 41.2012 184.688 41.6895C184.688 41.8262 184.678 41.9336 184.658 42.0117C184.561 42.3828 184.404 42.8516 184.189 43.418C183.994 43.9844 183.77 44.6191 183.516 45.3223C183.262 46.0059 182.998 46.7285 182.725 47.4902C182.471 48.2324 182.236 48.9648 182.021 49.6875C181.807 50.4102 181.631 51.0938 181.494 51.7383C181.357 52.3633 181.289 52.9004 181.289 53.3496C181.289 53.9355 181.387 54.4238 181.582 54.8145C181.777 55.1855 182.109 55.3711 182.578 55.3711C182.871 55.3711 183.213 55.2832 183.604 55.1074C184.014 54.9121 184.453 54.6582 184.922 54.3457C185.391 54.0332 185.869 53.6816 186.357 53.291C186.865 52.8809 187.354 52.4707 187.822 52.0605C188.916 51.084 190.078 49.9707 191.309 48.7207C191.621 48.4668 191.924 48.3398 192.217 48.3398C192.607 48.3398 192.93 48.5352 193.184 48.9258C193.457 49.2969 193.594 49.7168 193.594 50.1855C193.594 50.7324 193.408 51.1914 193.037 51.5625Z" fill="#282931"/>
</g>
<path d="M68.043 31.13C67.341 31.13 66.6607 31.0303 66.002 30.831C65.352 30.6317 64.8363 30.3673 64.455 30.038L65.04 28.725C65.4127 29.0197 65.8677 29.2623 66.405 29.453C66.951 29.635 67.497 29.726 68.043 29.726C68.719 29.726 69.2217 29.6177 69.551 29.401C69.889 29.1843 70.058 28.8983 70.058 28.543C70.058 28.283 69.9627 28.0707 69.772 27.906C69.59 27.7327 69.356 27.5983 69.07 27.503C68.784 27.4077 68.394 27.2993 67.9 27.178C67.2067 27.0133 66.6433 26.8487 66.21 26.684C65.7853 26.5193 65.417 26.2637 65.105 25.917C64.8017 25.5617 64.65 25.085 64.65 24.487C64.65 23.9843 64.7843 23.5293 65.053 23.122C65.3303 22.706 65.742 22.3767 66.288 22.134C66.8427 21.8913 67.5187 21.77 68.316 21.77C68.8707 21.77 69.4167 21.8393 69.954 21.978C70.4913 22.1167 70.955 22.316 71.345 22.576L70.812 23.889C70.4133 23.655 69.9973 23.4773 69.564 23.356C69.1307 23.2347 68.7103 23.174 68.303 23.174C67.6357 23.174 67.1373 23.2867 66.808 23.512C66.4873 23.7373 66.327 24.0363 66.327 24.409C66.327 24.669 66.418 24.8813 66.6 25.046C66.7907 25.2107 67.029 25.3407 67.315 25.436C67.601 25.5313 67.991 25.6397 68.485 25.761C69.161 25.917 69.7157 26.0817 70.149 26.255C70.5823 26.4197 70.9507 26.6753 71.254 27.022C71.566 27.3687 71.722 27.8367 71.722 28.426C71.722 28.9287 71.5833 29.3837 71.306 29.791C71.0373 30.1983 70.6257 30.5233 70.071 30.766C69.5163 31.0087 68.8403 31.13 68.043 31.13ZM73.3978 21.9H75.0878V31H73.3978V21.9ZM85.6351 21.9V31H84.2441L79.2261 24.838V31H77.5491V21.9H78.9401L83.9581 28.062V21.9H85.6351ZM92.2856 31.13C91.3669 31.13 90.5349 30.9307 89.7896 30.532C89.0529 30.1247 88.4722 29.5657 88.0476 28.855C87.6316 28.1443 87.4236 27.3427 87.4236 26.45C87.4236 25.5573 87.6359 24.7557 88.0606 24.045C88.4852 23.3343 89.0659 22.7797 89.8026 22.381C90.5479 21.9737 91.3799 21.77 92.2986 21.77C93.0439 21.77 93.7242 21.9 94.3396 22.16C94.9549 22.42 95.4749 22.797 95.8996 23.291L94.8076 24.318C94.1489 23.6073 93.3386 23.252 92.3766 23.252C91.7526 23.252 91.1936 23.3907 90.6996 23.668C90.2056 23.9367 89.8199 24.3137 89.5426 24.799C89.2652 25.2843 89.1266 25.8347 89.1266 26.45C89.1266 27.0653 89.2652 27.6157 89.5426 28.101C89.8199 28.5863 90.2056 28.9677 90.6996 29.245C91.1936 29.5137 91.7526 29.648 92.3766 29.648C93.3386 29.648 94.1489 29.2883 94.8076 28.569L95.8996 29.609C95.4749 30.103 94.9506 30.48 94.3266 30.74C93.7112 31 93.0309 31.13 92.2856 31.13ZM104.344 29.583V31H97.5189V21.9H104.162V23.317H99.2089V25.683H103.603V27.074H99.2089V29.583H104.344ZM112.317 21.9V31H110.627V23.317H108.703V21.9H112.317ZM117.19 21.77C118.438 21.77 119.404 22.16 120.089 22.94C120.782 23.72 121.129 24.838 121.129 26.294C121.129 27.3167 120.942 28.192 120.57 28.92C120.197 29.6393 119.673 30.1897 118.997 30.571C118.329 30.9437 117.554 31.13 116.67 31.13C116.202 31.13 115.76 31.0823 115.344 30.987C114.936 30.883 114.581 30.7357 114.278 30.545L114.902 29.271C115.352 29.5657 115.929 29.713 116.631 29.713C117.506 29.713 118.191 29.4443 118.685 28.907C119.179 28.3697 119.426 27.594 119.426 26.58V26.567C119.157 26.879 118.815 27.1173 118.399 27.282C117.983 27.438 117.515 27.516 116.995 27.516C116.397 27.516 115.859 27.4033 115.383 27.178C114.906 26.944 114.533 26.6147 114.265 26.19C113.996 25.7653 113.862 25.2757 113.862 24.721C113.862 24.1317 114.009 23.616 114.304 23.174C114.598 22.7233 114.997 22.3767 115.5 22.134C116.002 21.8913 116.566 21.77 117.19 21.77ZM117.32 26.19C117.866 26.19 118.308 26.0427 118.646 25.748C118.992 25.4533 119.166 25.0807 119.166 24.63C119.166 24.188 118.997 23.824 118.659 23.538C118.329 23.2433 117.87 23.096 117.281 23.096C116.752 23.096 116.323 23.239 115.994 23.525C115.664 23.8023 115.5 24.175 115.5 24.643C115.5 25.1197 115.664 25.4967 115.994 25.774C116.323 26.0513 116.765 26.19 117.32 26.19ZM125.34 21.77C126.588 21.77 127.555 22.16 128.239 22.94C128.933 23.72 129.279 24.838 129.279 26.294C129.279 27.3167 129.093 28.192 128.72 28.92C128.348 29.6393 127.823 30.1897 127.147 30.571C126.48 30.9437 125.704 31.13 124.82 31.13C124.352 31.13 123.91 31.0823 123.494 30.987C123.087 30.883 122.732 30.7357 122.428 30.545L123.052 29.271C123.503 29.5657 124.079 29.713 124.781 29.713C125.657 29.713 126.341 29.4443 126.835 28.907C127.329 28.3697 127.576 27.594 127.576 26.58V26.567C127.308 26.879 126.965 27.1173 126.549 27.282C126.133 27.438 125.665 27.516 125.145 27.516C124.547 27.516 124.01 27.4033 123.533 27.178C123.057 26.944 122.684 26.6147 122.415 26.19C122.147 25.7653 122.012 25.2757 122.012 24.721C122.012 24.1317 122.16 23.616 122.454 23.174C122.749 22.7233 123.148 22.3767 123.65 22.134C124.153 21.8913 124.716 21.77 125.34 21.77ZM125.47 26.19C126.016 26.19 126.458 26.0427 126.796 25.748C127.143 25.4533 127.316 25.0807 127.316 24.63C127.316 24.188 127.147 23.824 126.809 23.538C126.48 23.2433 126.021 23.096 125.431 23.096C124.903 23.096 124.474 23.239 124.144 23.525C123.815 23.8023 123.65 24.175 123.65 24.643C123.65 25.1197 123.815 25.4967 124.144 25.774C124.474 26.0513 124.916 26.19 125.47 26.19ZM134.219 31.13C133.491 31.13 132.841 30.948 132.269 30.584C131.697 30.2113 131.246 29.674 130.917 28.972C130.587 28.2613 130.423 27.4207 130.423 26.45C130.423 25.4793 130.587 24.643 130.917 23.941C131.246 23.2303 131.697 22.693 132.269 22.329C132.841 21.9563 133.491 21.77 134.219 21.77C134.947 21.77 135.597 21.9563 136.169 22.329C136.749 22.693 137.204 23.2303 137.534 23.941C137.863 24.643 138.028 25.4793 138.028 26.45C138.028 27.4207 137.863 28.2613 137.534 28.972C137.204 29.674 136.749 30.2113 136.169 30.584C135.597 30.948 134.947 31.13 134.219 31.13ZM134.219 29.661C134.869 29.661 135.38 29.3923 135.753 28.855C136.134 28.3177 136.325 27.516 136.325 26.45C136.325 25.384 136.134 24.5823 135.753 24.045C135.38 23.5077 134.869 23.239 134.219 23.239C133.577 23.239 133.066 23.5077 132.685 24.045C132.312 24.5823 132.126 25.384 132.126 26.45C132.126 27.516 132.312 28.3177 132.685 28.855C133.066 29.3923 133.577 29.661 134.219 29.661Z" fill="#A82523"/>
<defs>
<filter id="filter0_d_658_1720" x="7.00195" y="17.7539" width="189.592" height="58.3125" filterUnits="userSpaceOnUse" color-interpolation-filters="sRGB">
<feFlood flood-opacity="0" result="BackgroundImageFix"/>
<feColorMatrix in="SourceAlpha" type="matrix" values="0 0 0 0 0 0 0 0 0 0 0 0 0 0 0 0 0 0 127 0" result="hardAlpha"/>
<feOffset dx="3" dy="3"/>
<feComposite in2="hardAlpha" operator="out"/>
<feColorMatrix type="matrix" values="0 0 0 0 1 0 0 0 0 1 0 0 0 0 1 0 0 0 0.07 0"/>
<feBlend mode="normal" in2="BackgroundImageFix" result="effect1_dropShadow_658_1720"/>
<feBlend mode="normal" in="SourceGraphic" in2="effect1_dropShadow_658_1720" result="shape"/>
</filter>
</defs>
</svg>
