<svg width="40" height="40" viewBox="0 0 40 40" fill="none" xmlns="http://www.w3.org/2000/svg">
<path d="M38.6995 28.2826C39.4979 27.5587 40 26.5147 40 25.3562C40 23.845 39.1123 22.4437 37.7386 21.7865C37.3494 21.6001 36.8829 21.7647 36.6966 22.154C36.5104 22.5433 36.675 23.0097 37.0641 23.1959C37.8984 23.5951 38.4375 24.443 38.4375 25.3562C38.4375 26.6752 37.3602 27.7483 36.036 27.7483H3.96164C2.63875 27.7483 1.5625 26.6752 1.5625 25.3562C1.5625 24.443 2.10156 23.5951 2.93586 23.1959C3.32508 23.0097 3.48961 22.5433 3.30344 22.154C3.11727 21.7648 2.6507 21.6002 2.26156 21.7865C0.887656 22.4437 0 23.8449 0 25.3562C0 26.515 0.501875 27.559 1.30008 28.2829C0.515313 28.8262 0 29.7313 0 30.7548V32.6763C0 35.9316 2.65352 38.5801 5.91516 38.5801H34.0825C37.3455 38.5801 40 35.9316 40 32.6763V30.7548C40 29.7312 39.4845 28.8258 38.6995 28.2826ZM29.5973 29.3108L25.0994 33.1662L20.6013 29.3108H29.5973ZM38.4375 32.6763C38.4375 35.0701 36.4838 37.0176 34.0825 37.0176H5.91516C3.51508 37.0176 1.5625 35.0701 1.5625 32.6763V30.7548C1.5625 29.9586 2.2125 29.3108 3.01148 29.3108H18.2003L24.5909 34.7883C24.7371 34.9137 24.9182 34.9764 25.0993 34.9764C25.2804 34.9764 25.4615 34.9137 25.6077 34.7883L31.9983 29.3108H36.9885C37.7875 29.3108 38.4375 29.9587 38.4375 30.7548V32.6763Z" fill="#A82523"/>
<path fill-rule="evenodd" clip-rule="evenodd" d="M3.87405 17.6908C1.06952 17.6908 0.778975 20.7284 2.59632 22.4935C3.95937 23.8167 6.50554 24.4242 10.0643 22.5003C11.9001 21.5085 14.3102 21.5891 16.1323 22.5003C18.6669 23.7706 21.333 23.7706 23.8677 22.5003C25.6874 21.5891 28.0998 21.5085 29.9357 22.5003C33.4944 24.4242 36.0406 23.8167 37.4013 22.4935C39.2187 20.7285 38.9281 17.6908 36.1236 17.6908H20H3.87405Z" fill="#F5CA48"/>
<path d="M1.47744 17.8719C2.26846 18.4038 3.17377 18.472 3.87408 18.472H36.1237C36.8241 18.472 37.7294 18.4038 38.5203 17.8719C39.496 17.2157 39.9908 16.067 39.9908 14.4575C39.9908 10.7175 37.8624 7.33747 33.9976 4.94028C30.3378 2.6702 25.3667 1.42004 20 1.42004C14.6324 1.42004 9.66057 2.6702 6.00041 4.94028C2.13541 7.33739 0.00689697 10.7174 0.00689697 14.4575C0.00689697 16.067 0.501663 17.2157 1.47744 17.8719ZM6.82401 6.26809C10.2401 4.14934 14.9195 2.98254 20 2.98254C25.0796 2.98254 29.7581 4.14942 33.174 6.26817C36.5623 8.36981 38.4283 11.2782 38.4283 14.4576C38.4283 16.7203 37.2898 16.9096 36.1237 16.9096H3.87408C2.70791 16.9096 1.5694 16.7203 1.5694 14.4576C1.5694 11.2781 3.43557 8.36973 6.82401 6.26809Z" fill="#A82523"/>
<path d="M15.2166 8.0498C15.6481 8.0498 15.9979 7.70004 15.9979 7.26855C15.9979 6.83707 15.6481 6.4873 15.2166 6.4873H15.2098C14.7783 6.4873 14.4319 6.83707 14.4319 7.26855C14.4319 7.70004 14.7851 8.0498 15.2166 8.0498Z" fill="#A82523"/>
<path d="M24.788 8.0498C25.2194 8.0498 25.5693 7.70004 25.5693 7.26855C25.5693 6.83707 25.2194 6.4873 24.788 6.4873H24.781C24.3496 6.4873 24.0032 6.83707 24.0032 7.26855C24.0032 7.70004 24.3566 8.0498 24.788 8.0498Z" fill="#A82523"/>
<path d="M20.0023 13.4048C20.4337 13.4048 20.7835 13.055 20.7835 12.6235C20.7835 12.1921 20.4337 11.8423 20.0023 11.8423H19.9954C19.5639 11.8423 19.2176 12.1921 19.2176 12.6235C19.2176 13.055 19.5708 13.4048 20.0023 13.4048Z" fill="#A82523"/>
<path d="M29.5736 13.4048C30.005 13.4048 30.3549 13.055 30.3549 12.6235C30.3549 12.1921 30.005 11.8423 29.5736 11.8423H29.5668C29.1353 11.8423 28.7889 12.1921 28.7889 12.6235C28.7889 13.055 29.1422 13.4048 29.5736 13.4048Z" fill="#A82523"/>
<path d="M10.431 13.4048C10.8625 13.4048 11.2123 13.055 11.2123 12.6235C11.2123 12.1921 10.8625 11.8423 10.431 11.8423H10.4242C9.99269 11.8423 9.64636 12.1921 9.64636 12.6235C9.64636 13.055 9.99957 13.4048 10.431 13.4048Z" fill="#A82523"/>
</svg>
