<svg width="24" height="24" viewBox="0 0 24 24" fill="none" xmlns="http://www.w3.org/2000/svg">
<path d="M12 15.4173C15.4925 15.4173 18.3237 12.5808 18.3237 9.08172C18.3237 5.58265 15.4925 2.74609 12 2.74609C8.5075 2.74609 5.67627 5.58265 5.67627 9.08172C5.67627 12.5808 8.5075 15.4173 12 15.4173Z" fill="#F5CA48"/>
<path d="M16.6381 18.5649C17.916 17.2212 18.9357 15.8279 19.669 14.4235C20.5956 12.6488 21.0654 10.8516 21.0654 9.08161C21.0654 4.074 16.9987 0 12 0C7.0013 0 2.93457 4.074 2.93457 9.08161C2.93457 10.8428 3.40445 12.6346 4.33112 14.4073C5.06429 15.8098 6.08391 17.2036 7.36163 18.55C7.94213 19.1617 8.52048 19.7059 9.05776 20.176C7.74001 20.5491 7.00201 21.1599 7.00201 21.9036C7.00205 23.2799 9.51634 24 12 24C14.4837 24 16.998 23.2799 16.998 21.9036C16.998 21.1628 16.2626 20.5524 14.9506 20.1787C15.4855 19.712 16.0607 19.172 16.6381 18.5649ZM16.0605 21.9036C16.0605 22.0421 15.7898 22.3454 15.0441 22.6134C14.2382 22.903 13.1572 23.0625 12 23.0625C10.8429 23.0625 9.76177 22.903 8.9559 22.6134C8.21021 22.3454 7.93955 22.0421 7.93955 21.9036C7.93955 21.7153 8.45016 21.2161 9.95598 20.9275C10.9745 21.7423 11.7002 22.1988 11.7519 22.231C11.8278 22.2784 11.9139 22.3021 12 22.3021C12.0856 22.3021 12.1712 22.2787 12.2469 22.2318C12.2986 22.1997 13.0282 21.7441 14.0511 20.9289C15.5525 21.2183 16.0605 21.717 16.0605 21.9036ZM12.0009 21.2728C11.3812 20.8539 9.69338 19.6485 8.02651 17.8887C6.13126 15.8877 3.87207 12.7354 3.87207 9.08161C3.87207 4.59094 7.51824 0.9375 12 0.9375C16.4817 0.9375 20.1279 4.59094 20.1279 9.08161C20.1279 12.7552 17.869 15.9062 15.974 17.9027C14.3079 19.6582 12.6207 20.8565 12.0009 21.2728Z" fill="#A82523"/>
<path d="M14.4691 7.26847L13.3806 7.11027L12.8937 6.12392C12.7246 5.78122 12.3821 5.56836 11.9999 5.56836C11.6178 5.56836 11.2754 5.78127 11.1062 6.12392L10.6194 7.11027L9.53095 7.26847C9.15276 7.32341 8.84446 7.58333 8.72634 7.9468C8.60826 8.31027 8.70487 8.70177 8.97853 8.96848L9.76617 9.73625L9.58021 10.8204C9.51562 11.197 9.66754 11.5706 9.97673 11.7951C10.1514 11.9221 10.3558 11.9865 10.5616 11.9865C10.72 11.9865 10.8793 11.9483 11.0264 11.871L12 11.3592L12.9736 11.871C13.3119 12.0489 13.7141 12.0198 14.0233 11.7951C14.3324 11.5705 14.4844 11.197 14.4198 10.8204L14.2338 9.7363L15.0214 8.96853C15.2951 8.70177 15.3917 8.31031 15.2737 7.94684C15.1556 7.58333 14.8472 7.32341 14.4691 7.26847ZM14.367 8.29719L13.4029 9.23698C13.2925 9.34466 13.242 9.49981 13.2681 9.65188L13.4957 10.9789C13.4976 10.9897 13.5019 11.0151 13.4722 11.0367C13.4423 11.0584 13.4196 11.0464 13.4098 11.0412L12.2181 10.4147C12.1499 10.3788 12.0749 10.3609 12 10.3609C11.9251 10.3609 11.8501 10.3788 11.7819 10.4147L10.5902 11.0412C10.5804 11.0464 10.5576 11.0584 10.5278 11.0368C10.4981 11.0151 10.5024 10.9897 10.5043 10.9789L10.7319 9.65188C10.758 9.49981 10.7076 9.34466 10.5971 9.23698L9.63299 8.29719C9.62512 8.2895 9.60665 8.2715 9.61804 8.23653C9.62939 8.20152 9.65493 8.19781 9.66581 8.19627L10.9982 8.00267C11.1509 7.9805 11.2829 7.88459 11.3511 7.74627L11.9469 6.53895C11.9518 6.52911 11.9632 6.50595 12 6.50595C12.0368 6.50595 12.0482 6.52906 12.0531 6.53895L12.6489 7.74627C12.7172 7.88459 12.8492 7.9805 13.0019 8.00267L14.3342 8.19627C14.3451 8.19786 14.3706 8.20156 14.382 8.23653C14.3934 8.27145 14.3749 8.2895 14.367 8.29719Z" fill="#A82523"/>
</svg>
