<svg width="386" height="386" viewBox="0 0 386 386" fill="none" xmlns="http://www.w3.org/2000/svg">
<g opacity="0.03" clip-path="url(#clip0_630_248)">
<path d="M261.248 343.4L321.522 239.002C331.855 224.243 321.145 200.882 317.644 185.558C317.57 185.385 317.488 185.207 317.389 185.041L314.293 173.488L330.973 144.597C338.55 131.436 334.028 114.611 320.871 107.026L202.655 38.7733C189.502 31.2013 172.703 35.6957 165.099 48.8296L148.404 77.7449L136.851 80.8405C136.666 80.8421 136.476 80.8517 136.289 80.8742L108.911 88.169C100.081 90.4935 92.5562 96.2728 88.0182 104.189L27.7442 208.587C26.1839 211.365 25.2403 214.39 23.0502 216.717C13.835 232.415 19.5635 253.203 35.2844 262.247L211.047 363.724C231.94 375.179 252.204 363.538 261.248 343.4ZM304.318 190.69L311.354 216.562C312.768 221.763 312.039 227.31 309.33 231.964L305.468 238.654L277.799 236.622L304.318 190.69ZM177.306 55.8775C181.012 49.4774 189.197 47.2911 195.607 50.9808L313.823 119.233C320.224 122.939 322.423 131.121 318.733 137.53L262.171 235.499L183.062 229.681C175.879 229.191 169.328 225.409 165.312 219.433L120.72 153.832L177.306 55.8775ZM100.24 111.213C102.916 106.54 107.356 103.135 112.566 101.76L138.49 94.9166L111.957 140.873L96.3634 117.927L100.24 111.213ZM249.065 336.366C240.079 351.459 229.528 357.575 218.152 351.549L42.308 250.026C40.9711 249.222 39.6697 248.318 38.6316 247.166C31.9081 240.43 32.2712 229.051 40.0004 215.663L88.5702 131.538L153.687 227.371C160.115 236.93 170.589 242.978 182.082 243.764L297.634 252.241L249.065 336.366Z" fill="#282931"/>
<path d="M269.307 180.513C271.252 177.144 270.096 172.831 266.727 170.886L174.423 117.594C171.053 115.649 166.74 116.804 164.795 120.174C162.85 123.543 164.006 127.856 167.375 129.801L259.679 183.093C263.048 185.038 267.362 183.883 269.307 180.513Z" fill="#282931"/>
<path d="M232.105 201.082C234.05 197.713 232.894 193.4 229.525 191.455L175.218 160.101C171.849 158.155 167.536 159.311 165.591 162.68C163.645 166.05 164.801 170.363 168.17 172.308L222.477 203.662C225.846 205.607 230.16 204.452 232.105 201.082Z" fill="#282931"/>
<path d="M204.585 109.237C205.192 109.576 259.115 140.73 258.892 140.591C266.878 145.158 273.912 133.03 265.939 128.383L211.633 97.0293C203.647 92.4619 196.604 104.585 204.585 109.237Z" fill="#282931"/>
</g>
<defs>
<clipPath id="clip0_630_248">
<rect width="281.918" height="281.918" fill="white" transform="translate(140.969 0.446289) rotate(30)"/>
</clipPath>
</defs>
</svg>
