<svg fill="none" height="24" viewBox="0 0 24 24" width="24" xmlns="http://www.w3.org/2000/svg"><path d="m12 6.32178c-3.87722 0-7.02032 3.14456-7.02032 7.02362 0 3.879 3.14306 7.0236 7.02032 7.0236 3.8772 0 7.0202-3.1445 7.0202-7.0236 0-3.87901-3.1431-7.02362-7.0202-7.02362zm0 8.02892c-.5553 0-1.0054-.4501-1.0054-1.0053s.4501-1.0053 1.0054-1.0053c.5552 0 1.0053.4501 1.0053 1.0053s-.4502 1.0053-1.0053 1.0053z" fill="#f5ca48"/><g fill="#a82523"><path d="m19.5306 5.81137c-1.6479-1.64873-3.7408-2.69062-6.0078-3.01335.1837-.28365.2905-.62157.2905-.984 0-1.00027-.8134-1.81402-1.8133-1.81402-1 0-1.8134.81375-1.8134 1.81402 0 .36243.1068.70035.2905.984-2.26693.32273-4.35985 1.36457-6.00779 3.01335-2.01145 2.0124-3.11915 4.68803-3.11915 7.53393s1.10775 5.5216 3.11915 7.534c2.0115 2.0124 4.68591 3.1207 7.53069 3.1207 2.8447 0 5.5191-1.1083 7.5306-3.1208 2.0115-2.0124 3.1192-4.688 3.1192-7.5339 0-2.846-1.1077-5.52158-3.1192-7.53393zm1.6368 8.00263h.5338c-.111 2.3257-1.043 4.4399-2.5117 6.0579l-.3757-.3757c-.1831-.183-.4798-.183-.663 0-.183.1831-.183.4799 0 .663l.376.376c-1.6176 1.4713-3.732 2.405-6.0581 2.5161v-.5385c0-.2589-.2099-.4688-.4688-.4688s-.4687.2099-.4687.4688v.5385c-2.3262-.1111-4.44054-1.0448-6.0582-2.5161l.37603-.376c.18305-.1831.18305-.4799 0-.663-.18304-.183-.47986-.183-.66295 0l-.3757.3757c-1.46874-1.618-2.40075-3.7321-2.51166-6.0579h.53377c.25889 0 .46875-.2099.46875-.4687 0-.2589-.20986-.4688-.46875-.4688h-.53372c.11095-2.3257 1.04292-4.4398 2.51165-6.05783l.37571.37571c.09154.09149.2115.13729.33145.13729s.23995-.0458.33145-.13729c.18305-.18305.18305-.47986 0-.66296l-.37603-.37603c1.61766-1.47127 3.73205-2.40497 6.0582-2.51611v.5386c0 .25884.2099.46875.4688.46875.2588 0 .4687-.20991.4687-.46875v-.5386c2.3262.11114 4.4406 1.04489 6.0582 2.51616l-.376.37603c-.1831.18305-.1831.47986 0 .66295.0915.0915.2115.1373.3314.1373.12 0 .2399-.0458.3315-.1373l.3757-.37575c1.4688 1.61803 2.4008 3.73213 2.5117 6.05783h-.5338c-.2588 0-.4687.2099-.4687.4688 0 .2588.2099.4687.4687.4687zm-10.0433-11.99998c0-.48329.3929-.87652.8759-.87652s.8759.39323.8759.87652c0 .48337-.3929.87656-.8759.87656s-.8759-.39319-.8759-.87656z"/><path d="m15.2383 12.8766h-1.8407c-.1467-.4364-.4925-.7822-.9289-.9289v-2.98652c0-.25884-.2099-.46875-.4687-.46875-.2589 0-.4688.20991-.4688.46875v2.98652c-.5837.1963-1.0053.7487-1.0053 1.3977 0 .8128.6612 1.474 1.4741 1.474.649 0 1.2014-.4216 1.3976-1.0053h1.8407c.2589 0 .4688-.2099.4688-.4687 0-.2589-.2099-.4688-.4688-.4688zm-3.2383 1.0053c-.2959 0-.5366-.2407-.5366-.5365 0-.2959.2407-.5366.5366-.5366.2958 0 .5365.2407.5365.5366s-.2407.5365-.5365.5365z"/></g></svg>